<svg width="40" height="40" viewBox="0 0 40 40" fill="none" xmlns="http://www.w3.org/2000/svg">
<g clip-path="url(#clip0_49_1281)">
<rect width="40" height="40" rx="20" fill="url(#paint0_linear_49_1281)"/>
<g filter="url(#filter0_d_49_1281)">
<path d="M20.3267 7.00369L17.161 8.01554C16.5295 9.59096 15.0713 10.7005 13.3517 10.7005C12.5501 10.7005 11.8061 10.3749 11.1355 9.94434L9.16672 10.573V23.2368C9.15184 26.7736 11.8851 29.2056 14.7281 30.7857C17.4874 32.3202 20.1658 32.9619 20.3267 33C20.4876 32.9628 23.1586 32.3202 25.9142 30.7866C28.7535 29.2056 31.4867 26.7727 31.4867 23.235V10.573L29.5216 9.94434C28.8502 10.3749 28.1052 10.6958 27.3036 10.6967H27.3008C25.584 10.6967 24.1276 9.58817 23.4971 8.01554L20.3258 7L20.3267 7.00369ZM20.3286 15.0957L21.9672 18.2622L25.4854 18.8454L22.9809 21.3825L23.5129 24.9071L20.3267 23.3094L17.1387 24.9062L17.6725 21.3815L15.1699 18.8426L18.6881 18.2622L20.3286 15.0957Z" fill="white"/>
</g>
</g>
<defs>
<filter id="filter0_d_49_1281" x="3.16666" y="3" width="34.3201" height="38" filterUnits="userSpaceOnUse" color-interpolation-filters="sRGB">
<feFlood flood-opacity="0" result="BackgroundImageFix"/>
<feColorMatrix in="SourceAlpha" type="matrix" values="0 0 0 0 0 0 0 0 0 0 0 0 0 0 0 0 0 0 127 0" result="hardAlpha"/>
<feOffset dy="2"/>
<feGaussianBlur stdDeviation="3"/>
<feComposite in2="hardAlpha" operator="out"/>
<feColorMatrix type="matrix" values="0 0 0 0 0 0 0 0 0 0 0 0 0 0 0 0 0 0 0.18 0"/>
<feBlend mode="normal" in2="BackgroundImageFix" result="effect1_dropShadow_49_1281"/>
<feBlend mode="normal" in="SourceGraphic" in2="effect1_dropShadow_49_1281" result="shape"/>
</filter>
<linearGradient id="paint0_linear_49_1281" x1="0" y1="40" x2="40" y2="0" gradientUnits="userSpaceOnUse">
<stop stop-color="#EF4136"/>
<stop offset="1" stop-color="#FBB040"/>
</linearGradient>
<clipPath id="clip0_49_1281">
<rect width="40" height="40" rx="20" fill="white"/>
</clipPath>
</defs>
</svg>
