<svg width="21" height="20" viewBox="0 0 21 20" fill="none" xmlns="http://www.w3.org/2000/svg">
    <path d="M2.1665 1.66669H3.61651C.51651 1.66669 5.22484 2.44169 5.14984 3.33335L4.45817 11.6333C4.3415 12.9917 5.4165 14.1583 6.78317 14.1583H15.6582C16.8582 14.1583 17.9082 13.175 17.9998 11.9834L18.4498 5.73336C18.5498 4.35002 17.4998 3.22502 16.1082 3.22502H5.34984M7.99984 6.66669H17.9998M15.0832 17.2917C15.0832 17.867 14.6168 18.3334 14.0415 18.3334C13.4662 18.3334 12.9998 17.867 12.9998 17.2917C12.9998 16.7164 13.4662 16.25 14.0415 16.25C14.6168 16.25 15.0832 16.7164 15.0832 17.2917ZM8.4165 17.2917C8.4165 17.867 7.95013 18.3334 7.37484 18.3334C6.79954 18.3334 6.33317 17.867 6.33317 17.2917C6.33317 16.7164 6.79954 16.25 7.37484 16.25C7.95013 16.25 8.4165 16.7164 8.4165 17.2917Z" stroke="currentColor" stroke-width="1.5" stroke-miterlimit="10" stroke-linecap="round" stroke-linejoin="round" />
</svg>