<svg width="49" height="48" viewBox="0 0 49 48" fill="none" xmlns="http://www.w3.org/2000/svg">
<g clip-path="url(#clip0_605_14836)">
<rect x="0.400024" width="48" height="48" rx="12" fill="url(#paint0_linear_605_14836)"/>
<g filter="url(#filter0_d_605_14836)">
<path d="M31.8821 34.4293C31.6729 36.119 32.8755 37.4892 34.5651 37.4892C36.2571 37.4892 37.7949 36.119 38.003 34.4293C38.2111 32.7374 37.0085 31.3672 35.3177 31.3672C33.6269 31.3672 32.0891 32.7374 31.8821 34.4293ZM33.5279 34.4293C33.6247 33.6475 34.3356 33.0141 35.1164 33.0141C35.896 33.0141 36.4528 33.6475 36.3561 34.4293C36.2604 35.2089 35.5495 35.8423 34.7688 35.8423C33.988 35.8423 33.4323 35.2089 33.5279 34.4293Z" fill="white"/>
<path d="M13.7963 34.4294C13.587 36.119 14.7908 37.4892 16.4804 37.4892C18.1724 37.4892 19.7102 36.119 19.9172 34.4294C20.1253 32.7374 18.9238 31.3661 17.2319 31.3661C15.5422 31.3661 14.0044 32.7374 13.7963 34.4294ZM15.4432 34.4294C15.5388 33.6464 16.2498 33.013 17.0294 33.013C17.8113 33.013 18.3659 33.6464 18.2714 34.4294C18.1746 35.209 17.4648 35.8423 16.6829 35.8423C15.9022 35.8423 15.3465 35.209 15.4432 34.4294Z" fill="white"/>
<path d="M6.40435 24.2992C6.36611 24.6074 6.58547 24.8583 6.89596 24.8583H15.971C16.2803 24.8583 16.5008 25.1103 16.4626 25.4185C16.4243 25.7279 16.1431 25.9787 15.8326 25.9787H8.949C8.63964 25.9787 8.3584 26.2296 8.31903 26.5389C8.28191 26.8472 8.50127 27.0992 8.81176 27.0992H18.6934C19.0027 27.0992 19.2232 27.35 19.185 27.6583C19.1467 27.9676 18.8655 28.2185 18.5561 28.2185H7.78355C7.47419 28.2185 7.19295 28.4694 7.1547 28.7787C7.11645 29.087 7.33582 29.3378 7.64631 29.3378H11.2675L10.6263 34.5666C10.5824 34.9165 10.8322 35.1989 11.1809 35.1989H12.8256C12.8065 34.9491 12.8087 34.6926 12.8425 34.4283C13.1147 32.2132 15.1363 30.4122 17.3513 30.4122C19.5641 30.4122 21.1435 32.2143 20.8713 34.4283C20.8398 34.6915 20.779 34.9491 20.7003 35.1989H30.9126C30.8935 34.9491 30.8958 34.6926 30.9284 34.4283C31.2006 32.2132 33.2233 30.4122 35.4372 30.4122C37.6523 30.4122 39.2317 32.2143 38.9595 34.4283C38.9268 34.6915 38.8672 34.9491 38.7873 35.1989H41.0091C41.359 35.1989 41.6762 34.9165 41.7201 34.5666L42.1892 30.7373H40.5794C40.243 30.7373 40.0034 30.4639 40.045 30.1253C40.0867 29.7901 40.3926 29.5167 40.7279 29.5167H42.3377L42.3624 29.3153C42.3624 29.3153 42.4794 28.5504 42.3006 27.9823C41.6638 25.9618 40.792 23.109 40.792 23.109C40.5985 22.4824 39.9652 22.0301 39.2823 22.0301H32.4055C31.6045 22.0301 30.8733 22.6803 30.7743 23.4813L29.5548 33.4169H28.7482L30.3952 19.9996C30.466 19.4258 30.0566 18.9612 29.4839 18.9612H13.5793C13.0056 18.9612 12.4847 19.4258 12.415 19.9996L12.2305 21.498H8.60927C8.2999 21.498 8.01867 21.7489 7.98042 22.0582C7.94217 22.3665 8.16154 22.6185 8.47202 22.6185H17.6292C17.9374 22.6185 18.1579 22.8693 18.1208 23.1776C18.0836 23.4869 17.8013 23.7378 17.4919 23.7378H7.0332C6.72272 23.7389 6.44148 23.9887 6.40435 24.2992ZM36.0649 27.2094L36.5025 23.6456H39.0832C39.1271 23.6512 39.2137 23.7142 39.2328 23.7558L40.4939 27.8473L36.0649 27.2094Z" fill="white"/>
<path d="M10.9307 10.95L10.7419 11.6564H8.90283L8.62271 12.6916H10.413L10.2182 13.4224H8.41567L7.91023 15.3162H6.40002L7.56313 10.95H10.9307Z" fill="white"/>
<path d="M11.8787 10.9561H15.1609C15.2381 10.9561 15.3101 10.9622 15.3771 10.9744C15.4441 10.9865 15.504 11.0008 15.5568 11.017C15.6055 11.0373 15.6512 11.0637 15.6938 11.0962C15.7364 11.1286 15.7699 11.1652 15.7943 11.2058C15.8064 11.222 15.8166 11.2433 15.8247 11.2697C15.8328 11.2961 15.8409 11.3215 15.8491 11.3458C15.8531 11.3743 15.8572 11.4047 15.8612 11.4372C15.8653 11.4697 15.8673 11.5001 15.8673 11.5285C15.8633 11.5772 15.8562 11.631 15.846 11.6899C15.8359 11.7488 15.8227 11.8107 15.8064 11.8756L15.5689 12.7708C15.5608 12.7911 15.5537 12.8134 15.5476 12.8378C15.5415 12.8621 15.5365 12.8824 15.5324 12.8987C15.5284 12.919 15.5212 12.9413 15.5111 12.9657C15.5009 12.99 15.4898 13.0123 15.4776 13.0326C15.4695 13.0529 15.4593 13.0743 15.4472 13.0966C15.435 13.1189 15.4228 13.1382 15.4106 13.1544C15.3984 13.1707 15.3822 13.1889 15.3619 13.2092C15.3416 13.2295 15.3233 13.2478 15.3071 13.264C15.2949 13.2762 15.2807 13.2884 15.2645 13.3006C15.2482 13.3128 15.232 13.3229 15.2158 13.331C15.1995 13.3391 15.1802 13.3483 15.1579 13.3584C15.1356 13.3686 15.1143 13.3757 15.094 13.3797C15.0737 13.3879 15.0513 13.395 15.027 13.4011C15.0026 13.4071 14.9783 13.4102 14.9539 13.4102C14.9255 13.4143 14.8971 13.4173 14.8686 13.4193C14.8402 13.4214 14.8098 13.4224 14.7773 13.4224L15.1427 15.3101H13.4498L13.2306 13.4285H12.7434L12.238 15.3101H10.7156L11.8787 10.9561ZM13.2245 11.6747L12.9504 12.7038H13.9065C13.9227 12.7038 13.938 12.7028 13.9522 12.7008C13.9664 12.6987 13.9755 12.6957 13.9796 12.6916C13.9918 12.6876 14.0039 12.6805 14.0161 12.6703C14.0283 12.6602 14.0384 12.651 14.0466 12.6429C14.0506 12.6388 14.0567 12.6307 14.0648 12.6186C14.0729 12.6064 14.079 12.5942 14.0831 12.582C14.0872 12.5698 14.0922 12.5566 14.0983 12.5424C14.1044 12.5282 14.1095 12.511 14.1135 12.4907L14.2901 11.8269C14.2942 11.8147 14.2972 11.8015 14.2993 11.7873C14.3013 11.7731 14.3023 11.762 14.3023 11.7538C14.3023 11.7457 14.2993 11.7376 14.2932 11.7295C14.2871 11.7214 14.282 11.7132 14.278 11.7051C14.2739 11.7011 14.2668 11.696 14.2566 11.6899C14.2465 11.6838 14.2374 11.6808 14.2292 11.6808C14.2171 11.6808 14.2049 11.6797 14.1927 11.6777C14.1805 11.6757 14.1704 11.6747 14.1623 11.6747H13.2245Z" fill="white"/>
<path d="M17.3025 10.95H20.67L20.4813 11.6564H18.6544L18.3743 12.7038H20.1524L19.9576 13.4163H18.1794L17.8628 14.6037H19.7323L19.5435 15.3101H16.1394L17.3025 10.95Z" fill="white"/>
<path d="M21.6485 10.95H25.016L24.8273 11.6564H23.0004L22.7203 12.7038H24.4984L24.3036 13.4163H22.5254L22.2088 14.6037H24.0783L23.8895 15.3101H20.4854L21.6485 10.95Z" fill="white"/>
<path d="M29.63 10.9561L29.4351 11.6747H27.3951C27.387 11.6747 27.3768 11.6757 27.3647 11.6777C27.3525 11.6797 27.3444 11.6828 27.3403 11.6868C27.3119 11.697 27.2896 11.7071 27.2733 11.7173C27.2652 11.7254 27.2571 11.7335 27.249 11.7417C27.2408 11.7498 27.2327 11.7559 27.2246 11.7599C27.2165 11.768 27.2094 11.7772 27.2033 11.7873C27.1972 11.7975 27.1942 11.8066 27.1942 11.8147L27.1089 12.1375C27.1048 12.1456 27.1028 12.1537 27.1028 12.1618C27.1028 12.17 27.1028 12.176 27.1028 12.1801C27.1028 12.2004 27.1089 12.2166 27.1211 12.2288C27.1251 12.2369 27.1312 12.2471 27.1393 12.2593C27.1475 12.2714 27.1556 12.2796 27.1637 12.2836C27.1759 12.2917 27.187 12.2978 27.1972 12.3019C27.2073 12.306 27.2185 12.308 27.2307 12.308H28.5704C28.5948 12.308 28.6211 12.309 28.6496 12.311C28.678 12.3131 28.7064 12.3161 28.7348 12.3202C28.7632 12.3242 28.7906 12.3303 28.817 12.3384C28.8434 12.3466 28.8688 12.3526 28.8931 12.3567C28.9175 12.3648 28.9419 12.375 28.9662 12.3871C28.9906 12.3993 29.0129 12.4115 29.0332 12.4237C29.0535 12.4359 29.0748 12.4511 29.0971 12.4694C29.1195 12.4876 29.1388 12.5049 29.155 12.5211C29.1672 12.5374 29.1794 12.5546 29.1915 12.5729C29.2037 12.5911 29.2118 12.6084 29.2159 12.6246C29.224 12.6449 29.2321 12.6652 29.2402 12.6855C29.2484 12.7058 29.2545 12.7261 29.2585 12.7464C29.2626 12.7667 29.2646 12.7901 29.2646 12.8165C29.2646 12.8428 29.2646 12.8682 29.2646 12.8926C29.2605 12.9169 29.2565 12.9443 29.2524 12.9748C29.2484 13.0052 29.2423 13.0367 29.2342 13.0692L28.8749 14.4028C28.8708 14.4231 28.8647 14.4454 28.8566 14.4698C28.8485 14.4941 28.8404 14.5165 28.8322 14.5368C28.8282 14.5571 28.8211 14.5794 28.8109 14.6037C28.8008 14.6281 28.7916 14.6484 28.7835 14.6646C28.7673 14.6971 28.7511 14.7276 28.7348 14.756C28.7186 14.7844 28.7023 14.8108 28.6861 14.8351C28.6699 14.8595 28.6506 14.8849 28.6282 14.9113C28.6059 14.9377 28.5866 14.961 28.5704 14.9813C28.5257 15.026 28.4791 15.0676 28.4303 15.1061C28.3816 15.1447 28.3288 15.1782 28.272 15.2066C28.2355 15.2229 28.1989 15.2391 28.1624 15.2553C28.1259 15.2716 28.0873 15.2817 28.0467 15.2858C28.0102 15.2939 27.9716 15.301 27.931 15.3071C27.8904 15.3132 27.8498 15.3162 27.8092 15.3162H24.9228L25.1115 14.5916H27.1454C27.1718 14.5916 27.1962 14.5875 27.2185 14.5794C27.2348 14.5753 27.249 14.5713 27.2611 14.5672C27.2733 14.5631 27.2855 14.5571 27.2977 14.5489C27.3058 14.5449 27.3159 14.5388 27.3281 14.5307C27.3403 14.5226 27.3505 14.5144 27.3586 14.5063C27.3667 14.4982 27.3748 14.488 27.3829 14.4759C27.3911 14.4637 27.3951 14.4515 27.3951 14.4393L27.4986 14.0557C27.5027 14.0476 27.5047 14.0374 27.5047 14.0252C27.5047 14.0131 27.5027 14.0029 27.4986 13.9948C27.4946 13.9867 27.4895 13.9786 27.4834 13.9704C27.4773 13.9623 27.4702 13.9542 27.4621 13.9461C27.458 13.942 27.4519 13.9359 27.4438 13.9278C27.4357 13.9197 27.4276 13.9136 27.4195 13.9095C27.3971 13.9014 27.3748 13.8974 27.3525 13.8974H25.8788C25.8545 13.8974 25.8291 13.8963 25.8027 13.8943C25.7763 13.8923 25.7509 13.8892 25.7266 13.8852C25.7022 13.8811 25.6789 13.876 25.6565 13.87C25.6342 13.8639 25.6149 13.8568 25.5987 13.8486C25.5784 13.8446 25.5591 13.8365 25.5408 13.8243C25.5226 13.8121 25.5053 13.802 25.4891 13.7938C25.4728 13.7817 25.4586 13.7685 25.4465 13.7543C25.4343 13.74 25.4221 13.7269 25.4099 13.7147C25.3876 13.6802 25.3693 13.6457 25.3551 13.6111C25.3389 13.5746 25.3308 13.53 25.3308 13.4772C25.3267 13.4366 25.3267 13.3909 25.3308 13.3402C25.3348 13.2894 25.345 13.2356 25.3612 13.1788L25.7266 11.8147C25.7347 11.7904 25.7428 11.765 25.7509 11.7386C25.7591 11.7122 25.7692 11.6868 25.7814 11.6625C25.7976 11.6097 25.824 11.5569 25.8605 11.5042C25.8727 11.4798 25.8879 11.4544 25.9062 11.428C25.9245 11.4017 25.9417 11.3763 25.958 11.3519C25.9783 11.3276 25.9996 11.3032 26.0219 11.2788C26.0442 11.2545 26.0676 11.2322 26.0919 11.2119C26.1082 11.1916 26.1275 11.1733 26.1498 11.1571C26.1721 11.1408 26.1934 11.1246 26.2137 11.1083C26.2381 11.0921 26.2625 11.0769 26.2868 11.0627C26.3112 11.0485 26.3355 11.0353 26.3599 11.0231C26.3842 11.015 26.4096 11.0068 26.436 10.9987C26.4624 10.9906 26.4878 10.9825 26.5121 10.9744C26.5365 10.9703 26.5639 10.9663 26.5943 10.9622C26.6248 10.9581 26.6542 10.9561 26.6826 10.9561H29.63Z" fill="white"/>
<path d="M32.2953 10.95L31.8264 12.6916H32.9773L33.4462 10.95H34.9625L33.7933 15.3101H32.277L32.7824 13.4163H31.6315L31.1261 15.3101H29.6037L30.7668 10.95H32.2953Z" fill="white"/>
<path d="M36.0567 10.9622L37.5912 10.95L36.422 15.3162H34.8935L36.0567 10.9622Z" fill="white"/>
<path d="M38.4662 10.9561H41.6936C41.718 10.9561 41.7454 10.9571 41.7758 10.9591C41.8063 10.9612 41.8357 10.9642 41.8641 10.9683C41.8926 10.9723 41.921 10.9784 41.9494 10.9865C41.9778 10.9947 42.0062 11.0008 42.0346 11.0048C42.059 11.0129 42.0834 11.0241 42.1077 11.0383C42.1321 11.0525 42.1544 11.0657 42.1747 11.0779C42.1991 11.0941 42.2214 11.1124 42.2417 11.1327C42.262 11.153 42.2803 11.1713 42.2965 11.1875C42.3087 11.2078 42.3209 11.2281 42.333 11.2484C42.3452 11.2687 42.3533 11.287 42.3574 11.3032C42.3655 11.3235 42.3726 11.3468 42.3787 11.3732C42.3848 11.3996 42.3899 11.425 42.3939 11.4494C42.398 11.4737 42.4 11.5001 42.4 11.5285C42.4 11.5569 42.396 11.5874 42.3878 11.6199C42.3878 11.6848 42.3757 11.7538 42.3513 11.8269L42.0651 12.9108C42.0529 12.9433 42.0418 12.9768 42.0316 13.0113C42.0215 13.0458 42.0103 13.0773 41.9981 13.1057C41.9859 13.1382 41.9717 13.1676 41.9555 13.194C41.9392 13.2204 41.923 13.2458 41.9068 13.2701C41.8946 13.2945 41.8784 13.3188 41.8581 13.3432C41.8378 13.3676 41.8195 13.3879 41.8032 13.4041C41.787 13.4244 41.7677 13.4447 41.7454 13.465C41.7231 13.4853 41.7018 13.5036 41.6815 13.5198C41.6571 13.536 41.6327 13.5523 41.6084 13.5685C41.584 13.5848 41.5617 13.599 41.5414 13.6111C41.517 13.6233 41.4907 13.6365 41.4622 13.6507C41.4338 13.6649 41.4074 13.6761 41.3831 13.6842C41.3465 13.6964 41.311 13.7066 41.2765 13.7147C41.242 13.7228 41.2085 13.7289 41.176 13.7329C41.1476 13.7411 41.1151 13.7461 41.0786 13.7482C41.0421 13.7502 41.0096 13.7512 40.9812 13.7512H39.2335L38.8133 15.304H37.3031L38.4662 10.9561ZM39.7876 11.6747L39.4222 13.0326H40.3235C40.3357 13.0326 40.3489 13.0306 40.3631 13.0266C40.3773 13.0225 40.3884 13.0164 40.3966 13.0083C40.4128 13.0042 40.428 12.9961 40.4422 12.9839C40.4564 12.9717 40.4676 12.9596 40.4757 12.9474C40.4838 12.9352 40.494 12.922 40.5062 12.9078C40.5184 12.8936 40.5285 12.8804 40.5366 12.8682C40.5407 12.856 40.5458 12.8428 40.5518 12.8286C40.5579 12.8144 40.563 12.8012 40.5671 12.7891L40.8106 11.8878C40.8147 11.8716 40.8167 11.8563 40.8167 11.8421C40.8167 11.8279 40.8167 11.8147 40.8167 11.8026C40.8167 11.7904 40.8137 11.7782 40.8076 11.766C40.8015 11.7538 40.7964 11.7437 40.7924 11.7356C40.7822 11.7173 40.768 11.7031 40.7498 11.6929C40.7416 11.6889 40.7315 11.6848 40.7193 11.6808C40.7071 11.6767 40.697 11.6747 40.6889 11.6747H39.7876Z" fill="white"/>
</g>
</g>
<defs>
<filter id="filter0_d_605_14836" x="0.400024" y="6.95001" width="48" height="38.5392" filterUnits="userSpaceOnUse" color-interpolation-filters="sRGB">
<feFlood flood-opacity="0" result="BackgroundImageFix"/>
<feColorMatrix in="SourceAlpha" type="matrix" values="0 0 0 0 0 0 0 0 0 0 0 0 0 0 0 0 0 0 127 0" result="hardAlpha"/>
<feOffset dy="2"/>
<feGaussianBlur stdDeviation="3"/>
<feComposite in2="hardAlpha" operator="out"/>
<feColorMatrix type="matrix" values="0 0 0 0 0 0 0 0 0 0 0 0 0 0 0 0 0 0 0.18 0"/>
<feBlend mode="normal" in2="BackgroundImageFix" result="effect1_dropShadow_605_14836"/>
<feBlend mode="normal" in="SourceGraphic" in2="effect1_dropShadow_605_14836" result="shape"/>
</filter>
<linearGradient id="paint0_linear_605_14836" x1="0.400024" y1="48" x2="48.4" y2="0" gradientUnits="userSpaceOnUse">
<stop stop-color="#FF104A"/>
<stop offset="1" stop-color="#FF9F8F"/>
</linearGradient>
<clipPath id="clip0_605_14836">
<rect x="0.400024" width="48" height="48" rx="12" fill="white"/>
</clipPath>
</defs>
</svg>
