<svg width="48" height="48" viewBox="0 0 48 48" fill="none" xmlns="http://www.w3.org/2000/svg">
<g clip-path="url(#clip0_605_6815)">
<rect width="48" height="48" rx="12" fill="url(#paint0_linear_605_6815)"/>
<g filter="url(#filter0_d_605_6815)">
<path d="M29.1515 34.8056C28.9858 35.119 28.7776 35.2757 28.5269 35.2757C28.2761 35.2757 28.0657 35.119 27.8955 34.8056C27.7299 34.4877 27.6067 34.1272 27.5261 33.7243C27.45 33.3213 27.4119 33.0034 27.4119 32.7705C27.4119 32.0183 27.7836 31.6422 28.5269 31.6422C29.2702 31.6422 29.6418 32.0183 29.6418 32.7705C29.6418 33.0034 29.6015 33.3213 29.5209 33.7243C29.4448 34.1272 29.3216 34.4877 29.1515 34.8056Z" fill="white"/>
<path d="M20.0978 30.0302C19.9321 30.3437 19.7239 30.5004 19.4731 30.5004C19.2224 30.5004 19.0119 30.3437 18.8418 30.0302C18.6761 29.7123 18.553 29.3519 18.4724 28.9489C18.3963 28.5459 18.3582 28.228 18.3582 27.9951C18.3582 27.2429 18.7299 26.8668 19.4731 26.8668C20.2164 26.8668 20.5881 27.2429 20.5881 27.9951C20.5881 28.228 20.5478 28.5459 20.4672 28.9489C20.3911 29.3519 20.2679 29.7123 20.0978 30.0302Z" fill="white"/>
<path fill-rule="evenodd" clip-rule="evenodd" d="M21.824 10.3576C18.6595 11.2504 17.4162 14.1148 18.0943 18.9511C18.2511 20.0699 17.6571 21.1595 16.6317 21.6338C16.4298 21.7271 16.2154 21.7907 15.9953 21.8223C14.7409 22.0029 13.5776 21.1324 13.3971 19.878C13.351 19.5579 13.328 19.2145 13.328 18.8479C7.7477 23.7376 7.82006 41 23.8033 41C39.7866 41 40.3498 23.7376 34.7696 20.2521C34.9323 20.5941 35.0273 21.0409 35.0546 21.5924C35.0565 21.6301 35.0574 21.6679 35.0574 21.7057C35.0574 22.9728 34.0302 24 32.7631 24C32.7178 24 32.6726 23.9984 32.6274 23.9952C31.5726 23.9203 30.7782 23.0045 30.8532 21.9497C31.4735 13.2162 29.1235 8.23295 23.8033 7C25.4428 9.08666 26.2002 11.3796 26.0757 13.8788C26.0071 15.2558 24.8705 16.3371 23.4918 16.3371C22.0628 16.3371 20.8789 15.2286 20.7851 13.8028C20.6892 12.3465 21.0355 11.1981 21.824 10.3576ZM27.1903 36.619C27.5843 36.8787 28.0299 37.0086 28.5269 37.0086C29.0284 37.0086 29.4784 36.8765 29.8769 36.6123C30.2754 36.3437 30.6045 35.9944 30.8642 35.5646C31.1284 35.1302 31.3254 34.6646 31.4552 34.1675C31.5851 33.666 31.65 33.178 31.65 32.7034C31.65 31.6959 31.3142 30.966 30.6425 30.5138C30.3694 30.3213 30.0627 30.1959 29.7224 30.1377C29.3866 30.0795 28.9881 30.0504 28.5269 30.0504C28.0657 30.0504 27.6649 30.0795 27.3246 30.1377C26.9843 30.1959 26.6776 30.3213 26.4045 30.5138C25.7373 30.966 25.4037 31.6959 25.4037 32.7034C25.4037 33.178 25.4664 33.6593 25.5918 34.1474C25.7216 34.6354 25.9209 35.1034 26.1896 35.5511C26.4627 35.9989 26.7963 36.3549 27.1903 36.619ZM22.7776 36.7601L26.5858 25.5235H24.9873L21.1791 36.7601H22.7776ZM18.1366 31.8437C18.5306 32.1034 18.9761 32.2332 19.4731 32.2332C19.9746 32.2332 20.4246 32.1011 20.8231 31.8369C21.2216 31.5683 21.5508 31.219 21.8105 30.7892C22.0746 30.3549 22.2716 29.8892 22.4015 29.3922C22.5314 28.8907 22.5963 28.4026 22.5963 27.928C22.5963 26.9205 22.2605 26.1929 21.5888 25.7451C21.3067 25.5481 20.9978 25.4205 20.6619 25.3623C20.3306 25.3041 19.9343 25.275 19.4731 25.275C19.0119 25.275 18.6134 25.3041 18.2776 25.3623C17.9463 25.4205 17.6396 25.5481 17.3575 25.7451C16.9948 25.9825 16.7351 26.2869 16.5784 26.6586C16.4261 27.0302 16.35 27.4534 16.35 27.928C16.35 28.3847 16.4149 28.866 16.5448 29.372C16.6791 29.8735 16.8784 30.3459 17.1425 30.7892C17.4112 31.228 17.7425 31.5795 18.1366 31.8437Z" fill="white"/>
</g>
</g>
<defs>
<filter id="filter0_d_605_6815" x="3.97501" y="3" width="40" height="46" filterUnits="userSpaceOnUse" color-interpolation-filters="sRGB">
<feFlood flood-opacity="0" result="BackgroundImageFix"/>
<feColorMatrix in="SourceAlpha" type="matrix" values="0 0 0 0 0 0 0 0 0 0 0 0 0 0 0 0 0 0 127 0" result="hardAlpha"/>
<feOffset dy="2"/>
<feGaussianBlur stdDeviation="3"/>
<feComposite in2="hardAlpha" operator="out"/>
<feColorMatrix type="matrix" values="0 0 0 0 0 0 0 0 0 0 0 0 0 0 0 0 0 0 0.18 0"/>
<feBlend mode="normal" in2="BackgroundImageFix" result="effect1_dropShadow_605_6815"/>
<feBlend mode="normal" in="SourceGraphic" in2="effect1_dropShadow_605_6815" result="shape"/>
</filter>
<linearGradient id="paint0_linear_605_6815" x1="0" y1="48" x2="48" y2="0" gradientUnits="userSpaceOnUse">
<stop stop-color="#7F00FF"/>
<stop offset="1" stop-color="#E100FF"/>
</linearGradient>
<clipPath id="clip0_605_6815">
<rect width="48" height="48" rx="12" fill="white"/>
</clipPath>
</defs>
</svg>
