<svg width="48" height="48" viewBox="0 0 48 48" fill="none" xmlns="http://www.w3.org/2000/svg">
<rect width="48" height="48" rx="12" fill="url(#paint0_linear_605_14246)"/>
<g clip-path="url(#clip0_605_14246)">
<g filter="url(#filter0_d_605_14246)">
<path d="M40.9249 17.976C40.8585 17.8684 39.5609 16.2992 39.4089 16.1332C39.2681 15.9579 37.9127 14.4378 37.8151 14.3588C37.7277 14.2893 37.6215 14.2477 37.5102 14.2393C37.3989 14.2309 37.2877 14.2561 37.1909 14.3117C37.0211 14.4109 36.8616 14.5268 36.7147 14.6576C36.5657 14.7867 36.4296 14.9299 36.3083 15.0853C36.2401 15.1747 36.1998 15.2823 36.1925 15.3945C36.1851 15.5068 36.2111 15.6186 36.2671 15.7162C36.2957 15.7653 36.5799 16.1146 36.896 16.4998C36.7067 16.6592 36.4976 16.8378 36.2784 17.0224C36.9589 17.6655 37.5449 18.4018 38.019 19.2092C38.258 18.9934 38.4911 18.7815 38.6956 18.5943C39.0277 18.9642 39.3318 19.2975 39.3757 19.3334C39.463 19.403 39.5692 19.4447 39.6805 19.4531C39.7918 19.4615 39.9031 19.4362 39.9999 19.3805C40.3391 19.1791 40.6383 18.9169 40.8824 18.6069C40.9507 18.5175 40.9911 18.4101 40.9987 18.2979C41.0063 18.1857 40.9806 18.0737 40.9249 17.976Z" fill="white"/>
<path d="M25.3511 13.5553C25.4341 13.5679 26.1147 13.5852 26.8645 13.5998C26.8253 13.8402 26.7828 14.1025 26.739 14.3754C27.4434 14.2549 28.1567 14.1942 28.8713 14.1941C29.5688 14.1928 30.2651 14.2534 30.9519 14.3754C30.9851 14.1025 31.0183 13.8402 31.0448 13.5991C31.7986 13.5852 32.4846 13.5679 32.5722 13.5553C32.7379 13.5313 32.8947 13.4652 33.0275 13.3632C33.1603 13.2612 33.2647 13.1268 33.3306 12.9729C33.4211 12.7229 33.4849 12.464 33.5212 12.2006C33.5591 11.945 33.5681 11.6859 33.5477 11.4282C33.5279 11.2782 33.4581 11.1392 33.3497 11.0336C33.2413 10.9279 33.1006 10.8618 32.9501 10.8459C32.7681 10.8166 29.6915 10.7682 29.3501 10.7794C29.0108 10.7701 25.9208 10.8186 25.7302 10.8459C25.5645 10.8698 25.4077 10.9359 25.2749 11.0379C25.1421 11.1399 25.0378 11.2743 24.9719 11.4282C24.8813 11.6782 24.8176 11.9371 24.7819 12.2006C24.7435 12.4561 24.7343 12.7152 24.7547 12.9729C24.7746 13.1227 24.8442 13.2615 24.9523 13.3671C25.0604 13.4726 25.2008 13.5389 25.3511 13.5553Z" fill="white"/>
<path d="M9.30899 22.1338H9.30833C8.61479 22.1338 8.05256 22.696 8.05256 23.3896V23.3902C8.05256 24.0838 8.61479 24.646 9.30833 24.646H9.30899C10.0025 24.646 10.5648 24.0838 10.5648 23.3902V23.3896C10.5648 22.696 10.0025 22.1338 9.30899 22.1338Z" fill="white"/>
<path d="M28.7239 15.2414C26.4455 15.2414 24.2308 15.926 22.3016 17.1008H10.0388C9.7071 17.1008 9.38894 17.2324 9.15413 17.4667C8.91933 17.701 8.78707 18.0189 8.78636 18.3506V18.3638C8.78636 18.696 8.91832 19.0146 9.1532 19.2495C9.38807 19.4843 9.70664 19.6163 10.0388 19.6163L16.1981 19.6196C16.5137 19.6426 16.8089 19.7842 17.0243 20.0159C17.2398 20.2476 17.3596 20.5523 17.3596 20.8687V20.8814C17.3596 21.0459 17.3272 21.2088 17.2642 21.3608C17.2012 21.5128 17.1089 21.6509 16.9925 21.7672C16.8761 21.8835 16.738 21.9758 16.586 22.0387C16.4339 22.1016 16.271 22.1339 16.1065 22.1338H12.6533C12.3209 22.1338 12.0022 22.2658 11.7672 22.5008C11.5322 22.7358 11.4002 23.0546 11.4002 23.3869V23.3995C11.4002 23.5641 11.4326 23.727 11.4956 23.879C11.5585 24.031 11.6509 24.1691 11.7672 24.2854C11.8836 24.4017 12.0217 24.4939 12.1738 24.5568C12.3258 24.6197 12.4887 24.6521 12.6533 24.652H14.0073C14.3395 24.652 14.6581 24.7839 14.8929 25.0188C15.1278 25.2537 15.2598 25.5723 15.2598 25.9044V25.9177C15.2598 26.2499 15.1278 26.5684 14.8929 26.8033C14.6581 27.0382 14.3395 27.1701 14.0073 27.1701H8.25245C7.92028 27.1701 7.60171 27.3021 7.36683 27.537C7.13195 27.7719 7 28.0904 7 28.4226L7 28.4352C7 28.7674 7.13193 29.0861 7.36679 29.3211C7.60165 29.556 7.92022 29.6881 8.25245 29.6883H15.0041C15.1686 29.6883 15.3314 29.7207 15.4834 29.7837C15.6353 29.8466 15.7734 29.9389 15.8897 30.0552C16.006 30.1715 16.0983 30.3095 16.1612 30.4615C16.2241 30.6134 16.2565 30.7763 16.2565 30.9408V30.9534C16.2565 31.2856 16.1246 31.6041 15.8897 31.839C15.6548 32.0739 15.3363 32.2058 15.0041 32.2058H11.7236C11.559 32.2058 11.3961 32.2382 11.2441 32.3012C11.0921 32.3642 10.954 32.4565 10.8377 32.5729C10.7214 32.6893 10.6292 32.8274 10.5663 32.9794C10.5034 33.1315 10.471 33.2944 10.4711 33.4589V33.4716C10.471 33.6361 10.5034 33.799 10.5663 33.951C10.6292 34.1029 10.7214 34.241 10.8378 34.3574C10.9541 34.4737 11.0922 34.5659 11.2442 34.6288C11.3962 34.6918 11.5591 34.7241 11.7236 34.724H18.6107C20.3306 36.4619 22.7645 37.5171 25.5934 37.5171C31.7448 37.5171 37.4319 32.5306 38.2965 26.3792C39.1612 20.2279 34.8752 15.2414 28.7239 15.2414ZM32.8757 25.249L27.6295 33.346C27.5703 33.4378 27.489 33.5133 27.393 33.5655C27.2971 33.6177 27.1895 33.645 27.0803 33.6449H26.6692C26.5703 33.6449 26.4726 33.6224 26.3835 33.5791C26.2945 33.5358 26.2164 33.4729 26.1553 33.3951C26.0941 33.3173 26.0513 33.2266 26.0303 33.1299C26.0092 33.0331 26.0104 32.9329 26.0337 32.8367L27.3267 27.5002H24.173C24.0847 27.5002 23.9975 27.4801 23.9181 27.4415C23.8386 27.4029 23.769 27.3467 23.7145 27.2773C23.6599 27.2078 23.6218 27.1269 23.6031 27.0406C23.5844 26.9543 23.5856 26.8648 23.6065 26.779L25.3557 19.5592C25.3865 19.4321 25.4592 19.319 25.5621 19.2382C25.665 19.1574 25.792 19.1135 25.9228 19.1136H29.55C29.6383 19.1136 29.7254 19.1337 29.8048 19.1723C29.8841 19.2109 29.9538 19.2669 30.0083 19.3363C30.0629 19.4056 30.1011 19.4865 30.1199 19.5727C30.1388 19.6589 30.1378 19.7483 30.1171 19.8341L29.0473 24.2389H32.3245C32.4423 24.2387 32.558 24.2703 32.6594 24.3303C32.7607 24.3904 32.844 24.4766 32.9005 24.5801C32.9569 24.6835 32.9844 24.8002 32.98 24.9179C32.9757 25.0356 32.9396 25.15 32.8757 25.249Z" fill="white"/>
</g>
</g>
<defs>
<filter id="filter0_d_605_14246" x="1" y="6.77777" width="46" height="38.7393" filterUnits="userSpaceOnUse" color-interpolation-filters="sRGB">
<feFlood flood-opacity="0" result="BackgroundImageFix"/>
<feColorMatrix in="SourceAlpha" type="matrix" values="0 0 0 0 0 0 0 0 0 0 0 0 0 0 0 0 0 0 127 0" result="hardAlpha"/>
<feOffset dy="2"/>
<feGaussianBlur stdDeviation="3"/>
<feComposite in2="hardAlpha" operator="out"/>
<feColorMatrix type="matrix" values="0 0 0 0 0 0 0 0 0 0 0 0 0 0 0 0 0 0 0.18 0"/>
<feBlend mode="normal" in2="BackgroundImageFix" result="effect1_dropShadow_605_14246"/>
<feBlend mode="normal" in="SourceGraphic" in2="effect1_dropShadow_605_14246" result="shape"/>
</filter>
<linearGradient id="paint0_linear_605_14246" x1="0" y1="48" x2="48" y2="0" gradientUnits="userSpaceOnUse">
<stop stop-color="#FE8DC6"/>
<stop offset="1" stop-color="#FED1C7"/>
</linearGradient>
<clipPath id="clip0_605_14246">
<rect width="34" height="34" fill="white" transform="translate(7 7)"/>
</clipPath>
</defs>
</svg>
