<svg width="40" height="40" viewBox="0 0 40 40" fill="none" xmlns="http://www.w3.org/2000/svg">
<rect width="40" height="40" rx="20" fill="url(#paint0_linear_49_1285)"/>
<g clip-path="url(#clip0_49_1285)">
<g filter="url(#filter0_d_49_1285)">
<path d="M31.2667 15.9566H30.569C30.0555 14.5731 29.2751 13.3039 28.2723 12.2213C28.4013 11.8701 28.4131 11.4866 28.3061 11.1281C28.1991 10.7696 27.979 10.4553 27.6787 10.2323C25.4506 8.60133 22.7612 7.72217 20 7.72217C17.2388 7.72217 14.5494 8.60133 12.3213 10.2323C12.021 10.4553 11.8009 10.7696 11.6939 11.1281C11.5869 11.4866 11.5987 11.8701 11.7277 12.2213C10.7249 13.3039 9.94454 14.5731 9.431 15.9566H8.73333C8.27362 15.9566 7.83274 16.1392 7.50768 16.4643C7.18262 16.7893 7 17.2302 7 17.6899V22.0233C7 22.483 7.18262 22.9239 7.50768 23.2489C7.83274 23.574 8.27362 23.7566 8.73333 23.7566H10.4667V19.8566C10.4647 17.4271 11.3953 15.0895 13.0667 13.3263C13.2993 13.3638 13.537 13.3547 13.7661 13.2997C13.9952 13.2446 14.2111 13.1447 14.4013 13.0056C16.0292 11.8245 17.9888 11.1884 20 11.1884C22.0112 11.1884 23.9708 11.8245 25.5987 13.0056C25.7889 13.1447 26.0048 13.2446 26.2339 13.2997C26.463 13.3547 26.7007 13.3638 26.9333 13.3263C28.0706 14.5355 28.8724 16.0207 29.2594 17.6349C29.6463 19.2492 29.6051 20.9365 29.1398 22.5299C28.6745 24.1233 27.8012 25.5676 26.6062 26.7199C25.4113 27.8722 23.9363 28.6924 22.327 29.0996C22.054 28.551 21.596 28.1165 21.0338 27.8727C20.4716 27.6289 19.8414 27.5915 19.2543 27.7671C18.6673 27.9427 18.1611 28.32 17.8251 28.8324C17.4891 29.3448 17.3449 29.9594 17.4179 30.5678C17.4909 31.1762 17.7764 31.7393 18.2241 32.1577C18.6718 32.5761 19.2529 32.8229 19.8648 32.8546C20.4768 32.8863 21.0803 32.7008 21.5688 32.3309C22.0573 31.9611 22.3995 31.4305 22.535 30.8329C24.3544 30.4087 26.0404 29.5404 27.4423 28.3056C28.8443 27.0708 29.9185 25.5079 30.569 23.7566H31.2667C31.7264 23.7566 32.1673 23.574 32.4923 23.2489C32.8174 22.9239 33 22.483 33 22.0233V17.6899C33 17.2302 32.8174 16.7893 32.4923 16.4643C32.1673 16.1392 31.7264 15.9566 31.2667 15.9566Z" fill="white"/>
<path d="M16.5333 25.0566C17.012 25.0566 17.4 24.6685 17.4 24.1899C17.4 23.7112 17.012 23.3232 16.5333 23.3232C16.0547 23.3232 15.6667 23.7112 15.6667 24.1899C15.6667 24.6685 16.0547 25.0566 16.5333 25.0566Z" fill="white"/>
<path d="M23.4667 25.0566C23.9453 25.0566 24.3333 24.6685 24.3333 24.1899C24.3333 23.7112 23.9453 23.3232 23.4667 23.3232C22.988 23.3232 22.6 23.7112 22.6 24.1899C22.6 24.6685 22.988 25.0566 23.4667 25.0566Z" fill="white"/>
<path d="M20 25.0566C20.4786 25.0566 20.8667 24.6685 20.8667 24.1899C20.8667 23.7112 20.4786 23.3232 20 23.3232C19.5214 23.3232 19.1333 23.7112 19.1333 24.1899C19.1333 24.6685 19.5214 25.0566 20 25.0566Z" fill="white"/>
</g>
</g>
<defs>
<filter id="filter0_d_49_1285" x="1" y="3.72217" width="38" height="37.136" filterUnits="userSpaceOnUse" color-interpolation-filters="sRGB">
<feFlood flood-opacity="0" result="BackgroundImageFix"/>
<feColorMatrix in="SourceAlpha" type="matrix" values="0 0 0 0 0 0 0 0 0 0 0 0 0 0 0 0 0 0 127 0" result="hardAlpha"/>
<feOffset dy="2"/>
<feGaussianBlur stdDeviation="3"/>
<feComposite in2="hardAlpha" operator="out"/>
<feColorMatrix type="matrix" values="0 0 0 0 0 0 0 0 0 0 0 0 0 0 0 0 0 0 0.18 0"/>
<feBlend mode="normal" in2="BackgroundImageFix" result="effect1_dropShadow_49_1285"/>
<feBlend mode="normal" in="SourceGraphic" in2="effect1_dropShadow_49_1285" result="shape"/>
</filter>
<linearGradient id="paint0_linear_49_1285" x1="0" y1="40" x2="40" y2="0" gradientUnits="userSpaceOnUse">
<stop stop-color="#EF4136"/>
<stop offset="1" stop-color="#FBB040"/>
</linearGradient>
<clipPath id="clip0_49_1285">
<rect width="26" height="26" fill="white" transform="translate(7 7)"/>
</clipPath>
</defs>
</svg>
