<svg width="80" height="32" viewBox="0 0 80 32" fill="none" xmlns="http://www.w3.org/2000/svg">
<path d="M16.6051 31.3527C15.634 31.3527 14.8941 30.5204 14.8941 29.4568V11.977C14.8941 10.9134 15.6802 10.0811 16.6051 10.0811H59.5646C59.5646 10.0811 59.7034 10.0811 59.8883 10.0811C60.9057 10.0811 63.449 10.1273 65.16 10.6822C66.3623 11.0522 67.6109 11.977 68.8132 12.8094C70.293 13.873 71.7727 14.9365 73.0213 14.9365C73.2987 14.9365 73.5299 14.8903 73.7612 14.7978C73.8536 14.7516 73.9461 14.7516 73.9924 14.7516C74.2236 14.7516 74.4086 14.8441 74.5473 15.029C74.7323 15.2603 74.686 15.6302 74.501 15.8614C73.8536 16.555 73.1138 16.925 72.2814 17.0175C73.8536 17.8036 75.4259 18.451 76.8132 18.451C77.3219 18.451 77.7843 18.3585 78.2005 18.1735C78.293 18.1273 78.3854 18.1273 78.4317 18.1273C78.6167 18.1273 78.7554 18.1735 78.8941 18.3123C79.0791 18.4972 79.1253 18.7747 79.0329 19.0059C76.8132 24.0926 73.0213 24.4626 69.6918 24.8325C68.4432 24.9712 67.2409 25.0637 66.1773 25.4337C66.4086 25.5261 66.6398 25.6649 66.871 25.8036C68.212 26.451 69.8768 27.2834 71.6802 27.2834C72.1427 27.2834 72.5589 27.2371 72.975 27.1446C73.0213 27.1446 73.0675 27.1446 73.1138 27.1446C73.345 27.1446 73.5762 27.2834 73.6687 27.4683C73.8074 27.6996 73.7612 28.0232 73.5762 28.2545C70.4779 31.3527 60.6745 31.4452 59.5646 31.4452C59.5646 31.3527 16.6051 31.3527 16.6051 31.3527Z" fill="url(#paint0_linear_1163_8391)"/>
<path d="M59.8883 10.682C60.767 10.682 63.3103 10.7282 64.9288 11.2369C67.5184 12.0693 70.4317 15.5375 73.0213 15.5375C73.345 15.5375 73.6687 15.4913 73.9924 15.3525C73.345 16.0462 72.6513 16.3236 71.9115 16.3236C69.9693 16.3236 67.7959 14.5202 65.5762 14.5202C64.6976 14.5202 63.819 14.7976 62.9404 15.5837C63.5415 15.0288 64.2814 14.7976 65.0213 14.7976C68.397 14.7976 73.0213 19.0057 76.8132 19.0057C77.3681 19.0057 77.923 18.9132 78.4317 18.682C75.1485 26.1733 68.4895 22.6589 64.0964 25.5722C64.1889 25.4797 64.3276 25.4797 64.5126 25.4797C65.8074 25.4797 68.4895 27.8381 71.6803 27.8381C72.1427 27.8381 72.6514 27.7918 73.1138 27.6531C70.2005 30.5664 60.212 30.6126 59.5646 30.6126H59.5184H16.6051C16.0039 30.6126 15.5415 30.0577 15.5415 29.3641V11.8843C15.5415 11.1907 16.0502 10.6358 16.6051 10.6358H59.5646C59.5646 10.682 59.6571 10.682 59.8883 10.682ZM59.8883 9.38721C59.7034 9.38721 59.6109 9.38721 59.5646 9.38721H16.6051C15.3103 9.38721 14.2005 10.5433 14.2005 11.9306V29.4103C14.2005 30.7976 15.2641 31.9537 16.6051 31.9537H59.5646H59.6109C61.4606 31.9537 70.8941 31.815 74.0849 28.578C74.5011 28.1618 74.5935 27.5144 74.3161 27.052C74.0849 26.6358 73.6225 26.4045 73.16 26.4045C73.0675 26.4045 72.9751 26.4045 72.8826 26.4508C72.5126 26.5433 72.1427 26.5895 71.7265 26.5895C70.4779 26.5895 69.2294 26.1271 68.1658 25.6184C68.6745 25.5259 69.2294 25.4797 69.7843 25.4335C73.1138 25.1098 77.2756 24.6473 79.634 19.2832C79.7265 19.0982 79.7727 18.9132 79.7727 18.7283C79.7727 18.0346 79.2178 17.4334 78.4779 17.4334C78.4317 17.4334 78.4317 17.4334 78.3855 17.4334C78.2467 17.4334 78.108 17.4797 77.9693 17.5259C77.6456 17.6647 77.2756 17.7109 76.8594 17.7109C76.0271 17.7109 75.056 17.4335 74.0386 17.0173C74.3623 16.7861 74.686 16.5548 75.0097 16.2311C75.4259 15.7687 75.4722 15.1213 75.1485 14.6126C74.9172 14.2427 74.5011 14.0577 74.0849 14.0577C73.8999 14.0577 73.7612 14.104 73.5762 14.1502C73.4375 14.1965 73.2525 14.2427 73.0675 14.2427C72.0039 14.2427 70.6167 13.2254 69.2294 12.208C67.9808 11.3294 66.686 10.4045 65.3912 9.98836C63.5415 9.43345 60.9057 9.38721 59.8883 9.38721Z" fill="#ECD92B"/>
<path d="M15.449 31.3525C15.2641 31.3525 15.1253 31.26 14.9866 31.1675C14.7554 30.9363 14.7554 30.5663 14.9404 30.3351C15.3565 29.7802 15.4953 29.2253 15.3565 28.6241C14.8479 26.6819 11.3797 24.8785 10.1311 24.3236C2.45481 20.9016 0.743824 17.5259 0.651338 15.26C0.558853 13.0866 1.99238 11.0519 4.62822 9.6646C9.11377 7.25998 9.80741 5.64148 9.80741 4.9016C9.80741 4.06923 9.02128 3.6068 8.97504 3.6068C8.69758 3.42183 8.55886 3.09812 8.69758 2.77443C8.79007 2.54321 9.02128 2.40448 9.29874 2.40448C9.39122 2.40448 9.43747 2.40448 9.52995 2.45073C9.62244 2.49697 11.8421 3.2831 12.4432 5.08656C12.7669 6.05766 12.582 7.075 11.8883 8.18483C12.6282 7.49119 13.5531 6.89003 14.7554 6.33512C17.1138 5.17905 17.345 4.34668 17.2987 4.02298C17.2063 3.23685 15.5415 2.35824 14.4317 2.03455C14.108 1.94206 13.923 1.61835 13.9693 1.24841C14.0617 0.970956 14.293 0.739746 14.6167 0.739746C14.6629 0.739746 14.7091 0.739746 14.7554 0.739746C15.3103 0.832232 20.212 1.84957 20.9982 4.76287C21.4143 6.33512 20.5357 8.09235 18.4086 9.89582C17.7612 10.4507 17.2063 11.0056 16.7901 11.5606C17.9461 10.5432 19.3334 10.0345 19.4259 9.9883C19.5184 9.94206 19.5646 9.94206 19.6571 9.94206C19.8883 9.94206 20.0733 10.0345 20.212 10.2658C20.3508 10.5432 20.3045 10.8669 20.1196 11.0981C19.2409 11.9305 18.7785 12.6241 18.8248 13.1328C18.871 13.8265 19.7496 14.4739 20.6745 15.2137C22.0155 16.2311 23.7265 17.5259 23.819 19.653C24.0502 25.7108 16.2814 31.075 15.9577 31.3062C15.6802 31.3062 15.5878 31.3525 15.449 31.3525Z" fill="url(#paint1_radial_1163_8391)"/>
<path d="M14.5703 1.2948C14.5703 1.2948 24.975 3.28324 17.8998 9.34104C11.4721 14.8439 17.9461 17.5723 17.9461 17.5723C12.4894 13.133 19.5646 10.5434 19.5646 10.5434C14.7553 14.9827 22.8478 15.2601 23.0328 19.6069C23.264 25.3873 15.449 30.7052 15.449 30.7052C18.316 27.0058 10.3622 23.7225 10.3622 23.7225C-0.782266 18.7746 -0.504809 13.133 4.95184 10.2197C13.8767 5.45665 9.29866 3.00578 9.29866 3.00578C9.29866 3.00578 13.4605 4.43931 11.2871 7.76879C8.18883 12.5318 11.657 13.9191 11.657 13.9191C9.94606 11.6069 10.7784 8.78613 14.9865 6.79769C21.7842 3.42196 14.5703 1.2948 14.5703 1.2948ZM14.5703 0C13.9692 0 13.4605 0.416184 13.3218 1.01734C13.1831 1.71098 13.553 2.35838 14.2004 2.54335C15.4027 2.9133 16.5588 3.60694 16.605 3.97688C16.605 3.97688 16.4663 4.62428 14.4316 5.64162C13.9692 5.87283 13.553 6.05781 13.1831 6.28902C13.2293 5.68786 13.1368 5.1792 12.9981 4.80925C12.3044 2.72833 9.94606 1.89596 9.6686 1.80347C9.52987 1.75723 9.39115 1.71098 9.25242 1.71098C8.74375 1.71098 8.23508 1.98844 8.05011 2.49711C7.77265 3.14451 8.0501 3.83815 8.65126 4.16185C8.65126 4.16185 9.15993 4.43931 9.15993 4.90174C9.15993 5.17919 8.88247 6.65896 4.35068 9.10983C1.48363 10.6358 -0.088624 12.8555 0.00386153 15.3064C0.0963471 17.7572 1.85357 21.4104 9.85357 24.9249C9.85357 24.9249 9.85357 24.9249 9.89982 24.9249C11.2871 25.526 14.3391 27.237 14.7553 28.763C14.8016 29.0405 14.8478 29.4104 14.4316 29.9191C14.0617 30.4277 14.0617 31.1214 14.5241 31.5838C14.7553 31.8613 15.1253 32 15.449 32C15.6802 32 15.9576 31.9075 16.1888 31.7688C16.5125 31.5376 24.605 25.9422 24.3276 19.5607C24.2351 17.1098 22.3391 15.6763 20.9518 14.659C20.2582 14.1503 19.3796 13.4566 19.3333 13.0867C19.3333 12.9942 19.3796 12.5318 20.4432 11.5607C20.9056 11.1445 20.9981 10.4509 20.6744 9.9422C20.4894 9.6185 20.1657 9.43353 19.842 9.34104C21.368 7.72254 21.9229 6.10405 21.5068 4.62428C20.6281 1.2948 15.3565 0.231215 14.8016 0.13873C14.7091 1.40571e-06 14.6628 0 14.5703 0Z" fill="#ECD92B"/>
<path d="M32.411 18.818V19.786C32.411 20.094 32.345 20.358 32.213 20.567C32.059 20.82 31.839 20.963 31.553 20.996C32.158 21.095 32.455 21.502 32.455 22.217V23.482C32.455 23.955 32.279 24.329 31.938 24.604C31.597 24.868 31.124 25 30.541 25H28.55V17.3H30.563C31.146 17.3 31.608 17.432 31.927 17.696C32.246 17.96 32.411 18.334 32.411 18.818ZM29.826 18.4V20.479H30.541C30.937 20.479 31.135 20.281 31.135 19.885V18.994C31.135 18.598 30.937 18.4 30.541 18.4H29.826ZM31.179 23.306V22.151C31.179 21.755 30.981 21.557 30.585 21.557H29.826V23.9H30.585C30.981 23.9 31.179 23.702 31.179 23.306ZM36.718 15.144L35.431 16.695H34.485L35.266 15.144H36.718ZM36.069 25L35.794 23.284H34.386L34.111 25H32.879L34.309 17.3H35.915L37.367 25H36.069ZM34.551 22.228H35.629L35.09 18.807L34.551 22.228ZM39.1691 25H38.0031V17.3H39.2791L40.8961 22.063V17.3H42.0621V25H40.8521L39.1691 19.995V25ZM48.7711 21.865V23.46C48.7711 24.549 48.1221 25.088 46.8351 25.088H46.8131C45.5261 25.088 44.8771 24.549 44.8771 23.46V18.84C44.8771 17.751 45.5261 17.212 46.8131 17.212H46.8351C48.1221 17.212 48.7711 17.751 48.7711 18.84V20.248H47.4951V19.038C47.4951 18.565 47.2751 18.334 46.8241 18.334C46.3731 18.334 46.1531 18.565 46.1531 19.038V23.262C46.1531 23.735 46.3731 23.966 46.8241 23.966C47.2751 23.966 47.4951 23.735 47.4951 23.262V21.865H48.7711ZM49.7873 17.3H51.0633V20.512H52.5263V17.3H53.8023V25H52.5263V21.656H51.0633V25H49.7873V17.3ZM57.6286 25L57.3536 23.284H55.9456L55.6706 25H54.4386L55.8686 17.3H57.4746L58.9266 25H57.6286ZM56.1106 22.228H57.1886L56.6496 18.807L56.1106 22.228ZM57.3096 25.572V26.683H56.0556V25.572H57.3096ZM61.2724 22.261V25H59.9964V22.261L58.4454 17.3H59.7874L60.6454 20.875L61.5034 17.3H62.8234L61.2724 22.261Z" fill="white"/>
<defs>
<linearGradient id="paint0_linear_1163_8391" x1="79.4392" y1="20.8488" x2="-20.9451" y2="20.4375" gradientUnits="userSpaceOnUse">
<stop offset="0.0663745" stop-color="#FF8C00"/>
<stop offset="1" stop-color="#FF0000"/>
</linearGradient>
<radialGradient id="paint1_radial_1163_8391" cx="0" cy="0" r="1" gradientUnits="userSpaceOnUse" gradientTransform="translate(13.5295 -1.1409) scale(38.0863 38.0863)">
<stop offset="0.0663745" stop-color="#FF8C00"/>
<stop offset="1" stop-color="#FF0000"/>
</radialGradient>
</defs>
</svg>
