<svg width="208" height="84" viewBox="0 0 208 84" fill="none" xmlns="http://www.w3.org/2000/svg">
<path fill-rule="evenodd" clip-rule="evenodd" d="M11.7925 13.6935L8.42801 22.3125L7.06701 14.9837C6.9075 14.1658 6.27701 13.6935 5.57651 13.6935H0.0765L0 14.061C1.129 14.3098 2.4115 14.7101 3.18901 15.1388C3.66451 15.4003 3.8 15.6294 3.95651 16.2511L6.534 26.3564H9.95001L15.1871 13.6935H11.7925ZM16.5739 13.6935L13.9005 26.3564H17.133L19.805 13.6935H16.5739ZM35.1055 17.1141L36.084 21.8695H33.4031L35.1055 17.1141ZM34.6305 13.6935C34.0111 13.6935 33.4885 14.0599 33.2556 14.6224L28.4065 26.3564H31.7985L32.4735 24.4661H36.6185L37.0105 26.3564H40L37.391 13.6935H34.6305ZM20.687 17.6478C20.664 19.471 22.2906 20.4891 23.5155 21.0938C24.7746 21.715 25.1971 22.1127 25.1926 22.6682C25.183 23.5175 24.188 23.8925 23.2575 23.9072C21.6335 23.9331 20.6895 23.4627 19.9385 23.1075L19.3535 25.8816C20.1065 26.2337 21.5009 26.5403 22.9475 26.5541C26.342 26.5541 28.5625 24.8558 28.5746 22.2222C28.5881 18.8806 24.014 18.6957 24.045 17.2019C24.0561 16.7492 24.4825 16.2658 25.417 16.1432C25.8795 16.0808 27.156 16.0332 28.6035 16.7088L29.1716 14.0249C28.3935 13.7376 27.393 13.4624 26.147 13.4624C22.9519 13.4624 20.705 15.1833 20.687 17.6478Z" fill="#1A1F71"/>
<path d="M76.7312 11.48H67.2673V28.5171H76.7312V11.48Z" fill="#FF5F00"/>
<path d="M67.868 19.9999C67.8645 16.6748 69.3879 13.5328 71.9991 11.4798C67.5644 7.98878 61.1963 8.49728 57.3698 12.648C53.5434 16.7987 53.5434 23.1981 57.3698 27.3488C61.1963 31.4994 67.5644 32.008 71.9991 28.5169C69.3887 26.4645 67.8654 23.3239 67.868 19.9999Z" fill="#EB001B"/>
<path d="M89.5 19.9998C89.4998 24.148 87.1353 27.932 83.4105 29.7446C79.6858 31.5574 75.2548 31.0806 71.9993 28.5169C74.6085 26.4628 76.1319 23.3226 76.1319 19.9983C76.1319 16.6741 74.6085 13.5339 71.9993 11.4798C75.2548 8.91599 79.6858 8.4392 83.4105 10.2519C87.1353 12.0647 89.4998 15.8486 89.5 19.9968V19.9998Z" fill="#F79E1B"/>
<path d="M141.5 28.0469C141.5 31.042 139.061 33.4808 136.066 33.4808H106.5V11.9589C106.5 8.96378 108.939 6.5249 111.934 6.5249H141.5V28.0469Z" fill="white"/>
<path d="M131.873 22.527H134.119C134.183 22.527 134.333 22.5056 134.397 22.5056C134.825 22.42 135.189 22.0349 135.189 21.5001C135.189 20.9866 134.825 20.6016 134.397 20.4945C134.333 20.4731 134.205 20.4731 134.119 20.4731H131.873V22.527Z" fill="url(#paint0_linear_642_8369)"/>
<path d="M133.862 8.34302C131.723 8.34302 129.968 10.0759 129.968 12.2367V16.2801H135.467C135.595 16.2801 135.745 16.2801 135.852 16.3015C137.092 16.3657 138.012 17.0074 138.012 18.1199C138.012 18.997 137.392 19.7459 136.237 19.8955V19.9384C137.499 20.024 138.462 20.7299 138.462 21.821C138.462 22.9976 137.392 23.7678 135.98 23.7678H129.947V31.6835H135.659C137.799 31.6835 139.553 29.9506 139.553 27.7899V8.34302H133.862Z" fill="url(#paint1_linear_642_8369)"/>
<path d="M134.911 18.3759C134.911 17.8624 134.547 17.5201 134.119 17.4559C134.076 17.4559 133.969 17.4346 133.905 17.4346H131.873V19.3172H133.905C133.969 19.3172 134.098 19.3172 134.119 19.2957C134.547 19.2317 134.911 18.8894 134.911 18.3759Z" fill="url(#paint2_linear_642_8369)"/>
<path d="M112.341 8.34302C110.201 8.34302 108.447 10.0759 108.447 12.2367V21.8424C109.538 22.3772 110.672 22.7195 111.806 22.7195C113.154 22.7195 113.881 21.9066 113.881 20.7941V16.2586H117.218V20.7728C117.218 22.527 116.127 23.9603 112.426 23.9603C110.18 23.9603 108.426 23.4683 108.426 23.4683V31.662H114.138C116.277 31.662 118.031 29.9291 118.031 27.7684V8.34302H112.341Z" fill="url(#paint3_linear_642_8369)"/>
<path d="M123.102 8.34302C120.962 8.34302 119.208 10.0759 119.208 12.2367V17.3284C120.192 16.494 121.904 15.9592 124.663 16.0875C126.14 16.1517 127.723 16.5582 127.723 16.5582V18.2055C126.931 17.799 125.99 17.4353 124.77 17.3497C122.674 17.1999 121.411 18.2269 121.411 20.024C121.411 21.8424 122.674 22.8693 124.77 22.6982C125.99 22.6126 126.931 22.2274 127.723 21.8424V23.4897C127.723 23.4897 126.161 23.8962 124.663 23.9603C121.904 24.0887 120.192 23.5539 119.208 22.7195V31.7049H124.92C127.059 31.7049 128.814 29.972 128.814 27.8112V8.34302H123.102Z" fill="url(#paint4_linear_642_8369)"/>
<path d="M177.387 10.2949L175.691 11.9909L175.606 12.0745L175.067 12.6152L174.664 13.0176L174.125 13.5571L174.041 13.6407L173.806 13.8759L173.722 13.9607H173.721L172.926 14.7548V14.756L172.842 14.8396C172.611 15.0716 172.347 15.2696 172.06 15.4275C171.918 15.5051 171.774 15.573 171.625 15.63C171.296 15.7565 170.95 15.8322 170.598 15.8542C170.384 15.8688 170.167 15.8627 169.953 15.8373C169.493 15.7827 169.039 15.6348 168.627 15.396C168.45 15.2942 168.27 15.1875 168.119 15.0384C168.118 15.0384 168.118 15.0384 168.117 15.0372C168.084 15.0057 168.051 14.973 168.017 14.9378L164.929 11.849L164.863 11.7836C164.81 11.7242 164.761 11.6599 164.72 11.5908C164.614 11.411 164.557 11.2058 164.558 10.9968C164.558 10.9629 164.559 10.9289 164.563 10.8962C164.567 10.8453 164.575 10.7968 164.584 10.7507C164.589 10.7326 164.593 10.7132 164.598 10.6962C164.6 10.6889 164.603 10.6804 164.604 10.6732C164.647 10.5277 164.719 10.3907 164.818 10.2683C164.845 10.2368 164.872 10.2052 164.902 10.1749L164.957 10.1216L168.248 6.83038H168.249L170.243 4.83625C170.688 4.39136 171.396 4.37197 171.863 4.77928L177.387 10.2949Z" fill="#085CA8"/>
<path d="M171.379 17.7059C171.114 17.7059 170.852 17.6465 170.602 17.5326L169.969 16.901L169.814 16.747L169.787 16.7192L169.493 16.4246L168.019 14.9348C168.051 14.9687 168.084 15.0014 168.118 15.0342C168.268 15.1833 168.45 15.2912 168.628 15.393C169.042 15.6318 169.494 15.7797 169.955 15.8342C170.168 15.8609 170.385 15.8658 170.6 15.8512C170.949 15.8294 171.295 15.7542 171.626 15.6269C171.774 15.57 171.92 15.5033 172.061 15.4245C172.342 15.2693 172.605 15.0742 172.843 14.8366L172.927 14.7529V14.7517L173.722 13.9577H173.723L173.807 13.8728L174.042 13.6377L174.126 13.554L174.665 13.0146L175.068 12.6121L175.607 12.0715L175.692 11.9878L179.111 8.56931L180.52 7.0419L180.529 7.03341L180.604 6.95826C181.034 6.52791 181.733 6.52791 182.163 6.95826L182.935 7.73045H182.936L182.962 7.75591C182.62 7.73893 182.276 7.86258 182.018 8.11473L179.405 10.6835L179.379 10.715L174.833 15.1881L174.827 15.1821L173.152 16.8271L173.142 16.8404C173.137 16.8464 173.1 16.8865 173.041 16.9459C172.909 17.0743 172.634 17.3168 172.265 17.4914C172.098 17.5702 171.928 17.6271 171.76 17.6623C171.66 17.6817 171.557 17.695 171.458 17.6999H171.379V17.7059Z" fill="#EB2227"/>
<path d="M187.115 13.4758L187.031 13.5606L183.329 17.3185L179.442 21.2656C179.32 21.3876 179.19 21.5003 179.051 21.6026C179.046 21.6074 179.042 21.6111 179.035 21.6159C179.017 21.6292 178.998 21.6438 178.978 21.6571C178.976 21.6595 178.974 21.6608 178.972 21.6632C178.366 22.0971 177.638 22.3299 176.892 22.3287C175.935 22.3287 175.065 21.9529 174.422 21.3419L174.419 21.3395L174.332 21.2631L173.663 20.594L171.784 18.7138L171.157 18.0871L171.07 17.9998C171.172 18.0168 171.275 18.0241 171.379 18.0241H171.383L171.466 18.0228C171.586 18.018 171.705 18.0047 171.823 17.9804C172.015 17.9404 172.209 17.875 172.4 17.7853C172.811 17.5913 173.116 17.3222 173.263 17.1791C173.32 17.1234 173.362 17.0761 173.38 17.0555L174.825 15.636L174.831 15.642L179.8 10.7543L179.827 10.7228L182.241 8.34801C182.566 8.0304 183.073 7.98919 183.442 8.24254L184.014 8.81472C184.015 8.81472 184.015 8.81593 184.015 8.81593L187.119 11.9192C187.147 11.9471 187.172 11.975 187.196 12.0053C187.544 12.4344 187.517 13.0745 187.115 13.4758Z" fill="#EB2227"/>
<path d="M175.122 9.36146C175.035 9.44875 174.891 9.44632 174.802 9.35783C173.338 7.88254 170.946 7.87284 169.471 9.33722C167.997 10.8016 167.986 13.1933 169.451 14.6686L170.598 15.8251C170.606 15.8324 170.614 15.8421 170.618 15.8506C170.612 15.8506 170.607 15.8518 170.601 15.8518C170.392 15.8663 170.181 15.8603 169.974 15.836L169.131 14.9862C167.492 13.3352 167.502 10.6573 169.153 9.01719C170.806 7.37825 173.482 7.38916 175.122 9.04022L175.126 9.04386C175.213 9.13235 175.211 9.27418 175.122 9.36146ZM176.875 10.8064L176.556 11.1253L175.998 10.5628C175.91 10.4743 175.91 10.3313 175.999 10.244C176.087 10.1567 176.229 10.1567 176.318 10.2452L176.875 10.8064Z" fill="#099DD9"/>
<path d="M172.072 15.4203C172.069 15.4228 172.066 15.424 172.063 15.4264C171.924 15.5016 171.784 15.5682 171.638 15.624L170.077 14.0493C169.1 13.065 168.961 11.5218 169.745 10.3799C169.779 10.3308 169.831 10.2971 169.889 10.2862C169.948 10.2753 170.008 10.2881 170.058 10.3217C170.161 10.392 170.186 10.5326 170.116 10.6356C169.454 11.5982 169.573 12.9013 170.397 13.7317L172.072 15.4203ZM175.932 11.7485L175.925 11.7557L175.69 11.9909L175.614 12.0661L173.858 10.2962C173.206 9.63919 172.254 9.40886 171.372 9.69495C171.254 9.73374 171.127 9.66828 171.088 9.5507C171.049 9.4319 171.115 9.30461 171.233 9.26582C172.276 8.92761 173.406 9.20157 174.177 9.97861L175.932 11.7485Z" fill="#099DD9"/>
<path d="M174.99 12.6911L174.671 13.0099L172.911 11.2352C172.482 10.8012 171.779 10.7988 171.346 11.2291C170.913 11.6594 170.91 12.3613 171.34 12.7941L172.475 13.9384C172.562 14.0257 172.562 14.1688 172.474 14.2573C172.386 14.3445 172.243 14.3445 172.155 14.2561L171.019 13.1117C170.415 12.5019 170.419 11.5152 171.027 10.9103C171.637 10.3054 172.625 10.3102 173.229 10.9188L174.99 12.6911Z" fill="#099DD9"/>
<path d="M174.049 13.6322L174.042 13.6395L173.807 13.8747L173.732 13.9498L171.967 12.1727C171.88 12.0854 171.88 11.9424 171.968 11.8539C172.057 11.7666 172.2 11.7666 172.287 11.8551L174.049 13.6322Z" fill="#099DD9"/>
<path d="M166.914 34.2945C167.083 34.2945 167.208 34.2654 167.29 34.2072C167.373 34.149 167.426 34.0605 167.451 33.9405C167.467 33.8653 167.457 33.8011 167.426 33.749C167.393 33.6968 167.32 33.6326 167.206 33.5574L166.757 33.2471C166.655 33.1756 166.577 33.1029 166.524 33.0277C166.471 32.9525 166.44 32.875 166.431 32.7937C166.421 32.7125 166.427 32.624 166.446 32.5295C166.495 32.2991 166.609 32.1173 166.788 31.984C166.968 31.8518 167.223 31.7852 167.557 31.7852C167.686 31.7852 167.811 31.8009 167.93 31.8324C168.049 31.864 168.137 31.8991 168.198 31.9379C168.223 31.9549 168.242 31.9706 168.254 31.9852C168.265 31.9997 168.268 32.0191 168.263 32.0434L168.207 32.3088C168.192 32.3731 168.156 32.3925 168.095 32.3682C168.03 32.3416 167.934 32.3149 167.806 32.2894C167.679 32.264 167.564 32.2507 167.461 32.2507C167.187 32.2507 167.031 32.3416 166.992 32.5246C166.977 32.5889 166.988 32.6422 167.021 32.6858C167.055 32.7295 167.128 32.7889 167.238 32.8653L167.649 33.1441C167.769 33.2253 167.859 33.3077 167.919 33.3902C167.979 33.4726 168.015 33.5562 168.027 33.6423C168.039 33.7284 168.033 33.8266 168.011 33.9381C167.981 34.0823 167.919 34.2157 167.827 34.3393C167.735 34.463 167.605 34.5624 167.439 34.6412C167.272 34.7188 167.068 34.7576 166.828 34.7576C166.667 34.7576 166.524 34.7394 166.399 34.7018C166.273 34.6654 166.188 34.6315 166.142 34.6C166.111 34.5781 166.09 34.5612 166.081 34.5491C166.073 34.5369 166.072 34.5187 166.077 34.4945L166.134 34.229C166.147 34.1696 166.183 34.149 166.245 34.1696C166.484 34.2545 166.707 34.2945 166.914 34.2945ZM169.141 34.3211C169.288 34.3211 169.462 34.2908 169.665 34.2314C169.723 34.2157 169.746 34.2375 169.734 34.2945L169.682 34.5454C169.676 34.5697 169.665 34.5891 169.649 34.6036C169.633 34.6181 169.609 34.6327 169.576 34.6472C169.426 34.7224 169.25 34.76 169.048 34.76C168.873 34.76 168.725 34.7272 168.605 34.6618C168.485 34.5963 168.402 34.4921 168.356 34.3502C168.31 34.2084 168.308 34.0278 168.354 33.8096L168.433 33.4447C168.478 33.2314 168.553 33.0532 168.66 32.9113C168.767 32.7683 168.894 32.6628 169.043 32.5961C169.192 32.5283 169.355 32.4943 169.529 32.4943C169.73 32.4943 169.89 32.5319 170.009 32.6071C170.036 32.6216 170.054 32.6349 170.064 32.6495C170.073 32.664 170.076 32.6834 170.07 32.7077L170.016 32.9586C170.003 33.0156 169.972 33.0374 169.921 33.0216C169.841 32.9938 169.767 32.9719 169.7 32.9562C169.633 32.9404 169.551 32.9319 169.453 32.9319C169.188 32.9319 169.02 33.1029 168.947 33.4447L168.868 33.8096C168.83 33.9951 168.838 34.126 168.894 34.2048C168.953 34.2824 169.034 34.3211 169.141 34.3211ZM171.187 32.9234C170.983 32.9234 170.767 32.9574 170.541 33.0253C170.483 33.041 170.46 33.0192 170.472 32.9622L170.522 32.7234C170.527 32.6992 170.538 32.6798 170.553 32.664C170.569 32.6483 170.593 32.6349 170.627 32.6216C170.715 32.5877 170.819 32.5573 170.943 32.5319C171.066 32.5064 171.198 32.4931 171.339 32.4931C171.507 32.4931 171.646 32.521 171.754 32.5755C171.861 32.6301 171.935 32.7149 171.975 32.8277C172.015 32.9416 172.019 33.0786 171.984 33.2411L171.699 34.5769C171.694 34.6048 171.687 34.6242 171.678 34.6363C171.67 34.6472 171.652 34.6569 171.626 34.663C171.504 34.6945 171.386 34.7188 171.275 34.7357C171.162 34.7527 171.027 34.7612 170.869 34.7612C170.654 34.7612 170.484 34.7394 170.358 34.6945C170.232 34.6497 170.146 34.5794 170.101 34.4836C170.056 34.3878 170.05 34.2605 170.084 34.1042L170.088 34.0848C170.113 33.9684 170.151 33.8702 170.201 33.7878C170.25 33.7065 170.318 33.6375 170.403 33.5817C170.488 33.5259 170.591 33.4835 170.713 33.4568C170.836 33.4289 170.984 33.4156 171.156 33.4156H171.431L171.467 33.2435C171.493 33.121 171.483 33.0374 171.438 32.9925C171.393 32.9453 171.31 32.9234 171.187 32.9234ZM171.233 34.3369L171.356 33.7575H171.081C170.962 33.7575 170.872 33.7684 170.81 33.789C170.75 33.8096 170.705 33.8423 170.677 33.8872C170.649 33.9308 170.627 33.9926 170.612 34.0714L170.606 34.0945C170.59 34.1684 170.59 34.2254 170.606 34.2642C170.621 34.303 170.654 34.3308 170.707 34.3466C170.759 34.3624 170.841 34.3709 170.95 34.3709C171.061 34.3696 171.155 34.3587 171.233 34.3369ZM173.932 34.6472C173.928 34.6678 173.916 34.686 173.897 34.7042C173.88 34.7199 173.859 34.7289 173.836 34.7297H173.475C173.453 34.7297 173.437 34.7212 173.426 34.7042C173.416 34.6873 173.412 34.6669 173.415 34.6472L173.691 33.3538C173.712 33.2507 173.717 33.1683 173.706 33.1065C173.696 33.0459 173.665 33.001 173.613 32.9731C173.562 32.9453 173.487 32.9307 173.388 32.9307C173.268 32.9307 173.137 32.9453 172.994 32.9731L172.637 34.6472C172.634 34.6703 172.623 34.6897 172.603 34.7054C172.585 34.7212 172.565 34.7297 172.541 34.7297H172.181C172.158 34.7297 172.141 34.7212 172.131 34.7042C172.12 34.6873 172.116 34.6669 172.12 34.6472L172.537 32.6883C172.544 32.6495 172.577 32.624 172.632 32.6095C172.771 32.5743 172.916 32.5452 173.07 32.5246C173.224 32.504 173.366 32.4931 173.494 32.4931C173.802 32.4931 174.013 32.561 174.127 32.6968C174.242 32.8325 174.268 33.0507 174.206 33.3502L173.932 34.6472ZM176.624 34.6618C176.617 34.7018 176.587 34.7248 176.536 34.7321C176.422 34.7503 176.318 34.7588 176.222 34.7588C176.067 34.7588 175.948 34.743 175.865 34.7115C175.783 34.68 175.732 34.6206 175.709 34.5309C175.686 34.4412 175.693 34.3102 175.73 34.1369L175.99 32.9065L175.679 32.8507C175.628 32.8422 175.607 32.8156 175.616 32.7719L175.654 32.5961C175.658 32.5742 175.67 32.5544 175.687 32.5404C175.705 32.5246 175.726 32.5173 175.748 32.5173H176.073L176.142 32.1961C176.15 32.1525 176.183 32.127 176.238 32.1173L176.615 32.0543H176.632C176.673 32.0543 176.689 32.0737 176.679 32.1137L176.593 32.5173H176.989C177.013 32.5173 177.032 32.5246 177.042 32.538C177.053 32.5525 177.057 32.5707 177.052 32.5949L177.002 32.8265C176.998 32.8483 176.986 32.8665 176.967 32.8822C176.949 32.898 176.929 32.9053 176.907 32.9053H176.51L176.25 34.1357C176.229 34.2327 176.224 34.2933 176.235 34.3175C176.246 34.3418 176.286 34.3539 176.355 34.3539H176.606C176.661 34.3539 176.685 34.3733 176.676 34.4133L176.624 34.6618ZM178.913 33.7841C178.873 33.9708 178.801 34.1381 178.697 34.2872C178.596 34.4334 178.462 34.5528 178.304 34.6351C178.147 34.7176 177.967 34.76 177.767 34.76C177.57 34.76 177.409 34.7188 177.284 34.6351C177.159 34.5527 177.078 34.4363 177.038 34.2872C176.998 34.1381 176.998 33.9708 177.038 33.7841L177.104 33.4689C177.144 33.2823 177.216 33.115 177.319 32.9659C177.419 32.8191 177.555 32.6996 177.713 32.618C177.873 32.5355 178.051 32.4931 178.249 32.4931C178.449 32.4931 178.61 32.5343 178.732 32.618C178.855 32.7004 178.936 32.8168 178.976 32.9659C179.016 33.115 179.016 33.2823 178.977 33.4689L178.913 33.7841ZM178.397 33.7841L178.463 33.4689C178.497 33.3053 178.489 33.1768 178.438 33.081C178.386 32.9865 178.292 32.938 178.155 32.938C178.02 32.938 177.907 32.9853 177.813 33.081C177.721 33.1756 177.657 33.3053 177.623 33.4689L177.556 33.7841C177.523 33.9478 177.531 34.0763 177.583 34.172C177.635 34.2666 177.729 34.3151 177.862 34.3151C177.998 34.3151 178.112 34.2678 178.205 34.172C178.298 34.0763 178.361 33.9478 178.397 33.7841ZM182.55 32.7259C182.482 33.0483 182.328 33.2823 182.089 33.4265C181.849 33.5708 181.562 33.6435 181.226 33.6435C181.205 33.6435 181.16 33.6423 181.091 33.6387C181.022 33.635 180.976 33.6338 180.956 33.6314C180.935 33.6302 180.91 33.629 180.882 33.6278L180.666 34.6497C180.661 34.6727 180.649 34.6909 180.632 34.7066C180.616 34.7203 180.596 34.728 180.575 34.7285H180.182C180.163 34.7285 180.147 34.7212 180.134 34.7054C180.127 34.6978 180.123 34.6888 180.121 34.6791C180.119 34.6693 180.119 34.6592 180.122 34.6497L180.694 31.9537C180.701 31.9161 180.718 31.8894 180.742 31.8724C180.768 31.8555 180.802 31.8433 180.844 31.8373C181.066 31.8033 181.325 31.7852 181.622 31.7852C181.959 31.7852 182.216 31.8555 182.395 31.9961C182.573 32.1367 182.627 32.3682 182.558 32.6895L182.55 32.7259ZM182.008 32.7259L182.015 32.6919C182.049 32.5283 182.027 32.4119 181.947 32.3416C181.867 32.2713 181.727 32.2361 181.525 32.2361C181.399 32.2361 181.282 32.2422 181.174 32.2531L180.975 33.1853C181.1 33.1926 181.215 33.1962 181.322 33.1962C181.462 33.1962 181.579 33.1792 181.671 33.1453C181.763 33.1113 181.837 33.0604 181.891 32.9913C181.946 32.9234 181.986 32.835 182.008 32.7259ZM183.403 32.9234C183.198 32.9234 182.982 32.9574 182.757 33.0253C182.699 33.041 182.676 33.0192 182.688 32.9622L182.738 32.7234C182.742 32.6992 182.753 32.6798 182.769 32.664C182.785 32.6483 182.809 32.6349 182.843 32.6216C182.93 32.5877 183.035 32.5573 183.158 32.5319C183.282 32.5064 183.414 32.4931 183.555 32.4931C183.723 32.4931 183.861 32.521 183.969 32.5755C184.077 32.6301 184.151 32.7149 184.191 32.8277C184.231 32.9416 184.235 33.0786 184.2 33.2411L183.915 34.5769C183.91 34.6048 183.903 34.6242 183.894 34.6363C183.886 34.6472 183.867 34.6569 183.842 34.663C183.719 34.6945 183.602 34.7188 183.49 34.7357C183.378 34.7527 183.243 34.7612 183.084 34.7612C182.87 34.7612 182.7 34.7394 182.574 34.6945C182.448 34.6497 182.362 34.5794 182.317 34.4836C182.272 34.3878 182.266 34.2605 182.3 34.1042L182.304 34.0848C182.329 33.9684 182.367 33.8702 182.416 33.7878C182.466 33.7065 182.534 33.6375 182.619 33.5817C182.704 33.5259 182.807 33.4835 182.929 33.4568C183.052 33.4289 183.199 33.4156 183.372 33.4156H183.647L183.683 33.2435C183.709 33.121 183.699 33.0374 183.654 32.9925C183.609 32.9453 183.526 32.9234 183.403 32.9234ZM183.449 34.3369L183.572 33.7575H183.296C183.178 33.7575 183.088 33.7684 183.026 33.789C182.965 33.8096 182.921 33.8423 182.893 33.8872C182.865 33.9308 182.843 33.9926 182.827 34.0714L182.821 34.0945C182.805 34.1684 182.805 34.2254 182.821 34.2642C182.837 34.303 182.87 34.3308 182.923 34.3466C182.975 34.3624 183.056 34.3709 183.165 34.3709C183.277 34.3696 183.372 34.3587 183.449 34.3369ZM186.642 32.5864C186.64 32.5946 186.637 32.6025 186.632 32.6095L185.491 34.8982C185.415 35.0509 185.34 35.1709 185.266 35.2582C185.192 35.3455 185.099 35.4097 184.989 35.451C184.878 35.4934 184.737 35.514 184.563 35.514C184.497 35.514 184.424 35.5091 184.345 35.4982C184.266 35.4885 184.204 35.4764 184.16 35.4619C184.107 35.4473 184.084 35.4255 184.09 35.3952L184.144 35.1443C184.147 35.1249 184.158 35.1091 184.178 35.0946C184.196 35.08 184.216 35.0739 184.238 35.0739H184.246C184.28 35.0752 184.352 35.08 184.461 35.0873C184.57 35.0946 184.644 35.0982 184.682 35.0982C184.739 35.0982 184.789 35.0909 184.831 35.0776C184.874 35.063 184.911 35.0388 184.945 35.0024C184.979 34.9661 185.013 34.9139 185.046 34.846L185.101 34.7297H185.044C185 34.7297 184.958 34.7224 184.921 34.7091C184.883 34.6945 184.85 34.6642 184.823 34.6157C184.795 34.5672 184.778 34.4969 184.77 34.4048L184.641 32.6107C184.639 32.6017 184.64 32.5925 184.643 32.584C184.652 32.5416 184.682 32.521 184.732 32.521H185.128C185.146 32.521 185.161 32.5283 185.172 32.5416C185.183 32.5561 185.187 32.5719 185.187 32.5913L185.244 34.1854C185.244 34.2424 185.255 34.2714 185.278 34.2714H185.315L186.095 32.5877C186.115 32.5428 186.146 32.521 186.189 32.521H186.589C186.607 32.521 186.622 32.527 186.632 32.5416C186.642 32.5525 186.646 32.5683 186.642 32.5864Z" fill="#099DD9"/>
<path fill-rule="evenodd" clip-rule="evenodd" d="M182.816 28.0614L180.768 25.1242L180.559 24.9326H182.579L183.947 27.1534L184.058 27.0637L184.884 25.8345C185.088 25.5327 185.06 25.1811 184.77 24.9338H186.679L184.473 28.0614L184.472 30.3307L184.861 30.7926H182.49L182.825 30.3368C182.824 29.5815 182.796 28.8166 182.816 28.0614ZM177.253 24.9338C177.417 25.1581 177.466 25.2369 177.484 25.4369C177.497 25.5763 177.487 25.6551 177.442 25.7848L175.919 30.2034C175.847 30.3852 175.701 30.5853 175.486 30.7804H177.149C177.025 30.6713 176.947 30.5404 176.918 30.3852C176.891 30.2434 176.892 30.1901 176.924 30.0543L177.262 29.0045H179.197L179.498 29.8131C179.53 29.8979 179.548 29.9767 179.555 30.0676C179.582 30.3695 179.485 30.618 179.245 30.7938H181.851C181.596 30.5659 181.36 30.3271 181.228 30.0385L179.325 24.9338H177.253ZM178.912 28.2432H177.527L178.199 26.3303L178.912 28.2432ZM171.981 24.9387L173.292 24.9338H174.882C175.757 24.9338 176.473 25.649 176.473 26.5243V26.7207C176.473 27.5959 175.756 28.2626 174.882 28.2893L174.157 28.3111C174.74 28.0432 174.984 27.3656 174.911 26.7546C174.853 26.2649 174.601 25.7933 174.18 25.7848L173.915 25.7788V30.1392C173.915 30.224 173.929 30.2592 173.974 30.3343C174.046 30.4531 174.14 30.5719 174.239 30.6895C174.264 30.7198 174.289 30.7513 174.315 30.7816H172.059C172.093 30.7404 172.126 30.698 172.157 30.6556C172.225 30.5622 172.286 30.464 172.332 30.3537C172.361 30.2834 172.375 30.2301 172.375 30.1549V25.4708C172.367 25.2272 172.124 25.0878 171.981 24.9387Z" fill="#085CA8"/>
<path fill-rule="evenodd" clip-rule="evenodd" d="M159.75 24.9067H161.571L163.099 29.2902L164.395 25.6595C164.42 25.5189 164.399 25.4729 164.344 25.3516C164.273 25.2037 164.196 25.0607 164.124 24.914H165.484C165.403 25.2098 165.284 25.5359 165.182 25.8341L163.425 30.9388C162.945 30.843 162.412 30.6539 161.997 30.2612C161.686 29.9666 161.576 29.6308 161.422 29.232L159.952 25.3419C159.897 25.188 159.826 25.051 159.75 24.9067ZM167.021 26.9615V30.0939C167.021 30.2212 167.05 30.2442 167.129 30.346L167.488 30.814H165.774L166.063 30.3715C166.137 30.2503 166.17 30.209 166.17 30.0672V25.6923L165.688 24.9092H167.465L170.341 28.6137V25.6607C170.341 25.5201 170.313 25.4741 170.238 25.3528C170.141 25.2049 170.041 25.0619 169.945 24.9152H171.658L171.3 25.3831C171.221 25.485 171.192 25.508 171.192 25.6353V30.9643C170.544 30.8794 169.94 30.7206 169.402 30.0333L167.021 26.9615Z" fill="#EB2227"/>
<path fill-rule="evenodd" clip-rule="evenodd" d="M186.546 26.3507C186.546 26.2246 186.565 26.0998 186.599 25.9798C186.635 25.861 186.685 25.7458 186.753 25.6331C186.879 25.4185 187.062 25.2476 187.298 25.1215C187.537 24.9954 187.811 24.9336 188.128 24.9336C188.257 24.9336 188.379 24.9481 188.49 24.9797C188.602 25.0112 188.713 25.0597 188.824 25.1239C189.033 25.2439 189.198 25.4148 189.318 25.6355C189.379 25.7519 189.428 25.8719 189.462 25.9967C189.493 26.1228 189.51 26.2598 189.51 26.4052C189.51 26.6053 189.467 26.8126 189.378 27.0247C189.29 27.2356 189.164 27.415 188.999 27.5605L189.204 27.7569C189.286 27.8345 189.372 27.9072 189.464 27.9751C189.556 28.043 189.658 28.1012 189.771 28.1521C189.884 28.2042 190.001 28.2345 190.121 28.2442C190.015 28.3327 189.901 28.4006 189.783 28.4491C189.663 28.4976 189.538 28.5194 189.409 28.5194C189.298 28.5194 189.185 28.4976 189.074 28.4491C188.96 28.403 188.853 28.3448 188.753 28.2769C188.646 28.2042 188.55 28.1303 188.464 28.0599L188.235 27.8672C188.219 27.8672 188.199 27.8672 188.173 27.8696C188.148 27.872 188.118 27.8757 188.081 27.8817L187.945 27.8939C187.682 27.8939 187.445 27.8236 187.23 27.6878C187.016 27.552 186.847 27.3653 186.729 27.1302C186.671 27.0138 186.625 26.8914 186.595 26.7616C186.563 26.6271 186.546 26.4925 186.546 26.3507ZM187.359 26.3592C187.359 26.4489 187.368 26.5434 187.39 26.6404C187.406 26.7083 187.43 26.7944 187.467 26.8986C187.522 27.0635 187.605 27.1993 187.713 27.3035C187.819 27.4102 187.951 27.4623 188.108 27.4623C188.31 27.4623 188.461 27.3823 188.556 27.2223C188.652 27.0623 188.703 26.8574 188.703 26.6065C188.703 26.5422 188.695 26.438 188.682 26.2974C188.668 26.1931 188.648 26.0973 188.624 26.0113C188.6 25.9216 188.572 25.8428 188.541 25.7749C188.48 25.6391 188.4 25.5361 188.296 25.4682C188.194 25.3979 188.071 25.3639 187.933 25.3639C187.869 25.3639 187.808 25.3761 187.753 25.4003C187.698 25.4221 187.646 25.4561 187.6 25.5009C187.516 25.5809 187.453 25.6852 187.416 25.8113C187.378 25.9373 187.357 26.0755 187.357 26.2246V26.301C187.357 26.3252 187.359 26.3422 187.359 26.3592ZM190.577 26.3883C190.662 26.3753 190.744 26.3439 190.816 26.2961C190.886 26.2477 190.941 26.1834 190.981 26.1058C191.001 26.0682 191.015 26.0295 191.027 25.9894C191.037 25.9494 191.041 25.907 191.041 25.8646C191.041 25.7349 191.007 25.6258 190.935 25.5373C190.864 25.4512 190.757 25.4076 190.612 25.4076H190.578V26.3883H190.577ZM190.577 26.615V27.4114C190.577 27.6102 190.639 27.7448 190.761 27.8139V27.832H189.606V27.8139C189.723 27.7472 189.783 27.6151 189.783 27.4175V25.4682C189.783 25.3494 189.771 25.256 189.752 25.1894C189.73 25.1215 189.681 25.0609 189.607 25.0088V25.0003H191.009C191.165 25.0003 191.306 25.0281 191.429 25.0863C191.554 25.1445 191.652 25.2282 191.724 25.3445C191.761 25.4003 191.788 25.4646 191.806 25.5349C191.827 25.6027 191.837 25.6791 191.837 25.7579C191.837 25.8646 191.803 25.9785 191.732 26.1046C191.664 26.2295 191.532 26.341 191.334 26.438L191.889 27.3738C192.021 27.5763 192.141 27.7205 192.25 27.8066L191.763 27.843L191.64 27.8466H191.526C191.416 27.8466 191.33 27.8284 191.266 27.7908C191.204 27.7545 191.143 27.6829 191.089 27.5763L190.577 26.615Z" fill="#EB2227"/>
<path d="M34.7253 59.5265C34.3563 56.7413 33.3704 54.2171 31.6315 52.3683H31.6308C29.7821 50.6299 27.2579 49.644 24.4724 49.2752C21.8114 48.9223 20.0004 49.0095 20.0004 49.0095C20.0004 49.0095 18.1884 48.9223 15.5277 49.2751C12.742 49.6439 10.2179 50.6299 8.36872 52.3682C6.6302 54.217 5.6438 56.7412 5.27485 59.5265C4.92212 62.1865 5.00962 63.9982 5.00962 63.9982C5.00962 63.9982 4.92212 65.8093 5.27485 68.4701C5.6438 71.2554 6.6302 73.7789 8.36872 75.6274V75.6281C10.2179 77.3664 12.742 78.3522 15.5276 78.7215C18.1883 79.0741 20.0003 78.9866 20.0003 78.9866C20.0003 78.9866 21.8113 79.0741 24.4723 78.7215C27.2578 78.3523 29.782 77.3665 31.6307 75.6281L31.6314 75.6274C33.3703 73.7789 34.3563 71.2554 34.7252 68.4701C35.0777 65.8093 34.9904 63.9982 34.9904 63.9982C34.9904 63.9982 35.0777 62.1864 34.7253 59.5265Z" fill="#1E4BC6"/>
<path d="M10.5239 59.6038H13.2173C13.627 59.6038 14.0039 59.6774 14.3487 59.8245C14.6938 59.9716 14.9914 60.1709 15.2434 60.4226C15.4945 60.6741 15.6921 60.9702 15.8356 61.3114C15.9793 61.6525 16.0513 62.0169 16.0513 62.4045C16.0513 62.7925 15.9793 63.1587 15.8356 63.5037C15.6922 63.8482 15.4945 64.1463 15.2434 64.3975C14.9914 64.6491 14.6917 64.849 14.3433 64.9957C13.9952 65.1432 13.6161 65.2167 13.2066 65.2167H11.9892V67.4682H10.5239V59.6038ZM11.9892 60.9611V63.8593H13.1095C13.3252 63.8593 13.5227 63.8215 13.7019 63.7461C13.8814 63.6707 14.036 63.5664 14.1655 63.4334C14.2951 63.3009 14.3955 63.1463 14.4671 62.9703C14.5392 62.7943 14.5752 62.6059 14.5752 62.4045C14.5752 62.2038 14.5392 62.015 14.4671 61.839C14.3955 61.663 14.2951 61.5108 14.1655 61.3812C14.036 61.252 13.8815 61.1495 13.7019 61.0743C13.5227 60.9989 13.3252 60.9611 13.1095 60.9611H11.9892Z" fill="white"/>
<path d="M19.4346 67.4785C19.0538 67.4785 18.6785 67.4082 18.3088 67.2662C17.9383 67.1244 17.6064 66.9184 17.3118 66.6482C17.0173 66.3783 16.7802 66.0476 16.6005 65.6563C16.421 65.2656 16.3314 64.8205 16.3314 64.3222C16.3314 63.8166 16.4193 63.3688 16.5952 62.9774C16.7713 62.5863 17.0045 62.2554 17.2959 61.9855C17.5866 61.7158 17.9208 61.5097 18.2975 61.3678C18.6749 61.2261 19.061 61.1548 19.456 61.1548C19.8722 61.1548 20.2567 61.2304 20.6088 61.381C20.9606 61.5316 21.2518 61.7368 21.4819 61.9972V61.1659H22.9364V67.4681H21.4819V66.5726C21.2518 66.8543 20.9576 67.0755 20.5978 67.2367C20.2389 67.3986 19.8511 67.4785 19.4346 67.4785ZM19.6716 66.1433C19.9443 66.1433 20.1957 66.0957 20.426 66.0014C20.6557 65.907 20.8531 65.7753 21.0181 65.6067C21.1834 65.4378 21.3144 65.2422 21.4115 65.0196C21.5088 64.7978 21.5574 64.5581 21.5574 64.3011C21.5574 64.0518 21.5088 63.8155 21.4115 63.593C21.3144 63.3708 21.1835 63.1767 21.0181 63.0114C20.8531 62.8458 20.6557 62.7162 20.426 62.622C20.1957 62.5275 19.9442 62.4802 19.6716 62.4802C19.4057 62.4802 19.1563 62.5275 18.9226 62.622C18.689 62.7162 18.4864 62.8441 18.3139 63.0059C18.1415 63.1682 18.0069 63.3605 17.9097 63.5831C17.8127 63.8057 17.7645 64.0452 17.7645 64.301C17.7645 64.5579 17.8127 64.7991 17.9097 65.025C18.0069 65.2509 18.1415 65.4459 18.3139 65.6113C18.4863 65.7773 18.689 65.9068 18.9226 66.0013C19.1563 66.0958 19.4057 66.1433 19.6716 66.1433Z" fill="white"/>
<path d="M25.9963 67.1954L23.4105 61.1658H24.962L26.7179 65.4779L28.3777 61.1658H29.9077L26.1468 70.3659H24.6715L25.9963 67.1954Z" fill="white"/>
<path fill-rule="evenodd" clip-rule="evenodd" d="M89.5 56.1187C89.5 54.2582 87.9917 52.75 86.1313 52.75H57.8688C56.0082 52.75 54.5 54.2582 54.5 56.1187V71.8813C54.5 73.7418 56.0082 75.25 57.8688 75.25H86.1313C87.9917 75.25 89.5 73.7418 89.5 71.8813V56.1187ZM57.8688 54H86.1313L86.3141 54.0078C87.3986 54.1005 88.25 55.0102 88.25 56.1187V71.8813L88.2422 72.0641C88.1495 73.1486 87.2399 74 86.1313 74H57.8688L57.6859 73.9922C56.6014 73.8995 55.75 72.9899 55.75 71.8813V56.1187L55.7578 55.936C55.8505 54.8514 56.7602 54 57.8688 54Z" fill="#591900"/>
<path fill-rule="evenodd" clip-rule="evenodd" d="M62.8441 68.5101L62.182 70.5181H60.75L63.5062 62.75H65.0728L67.829 70.5181H66.3648L65.7026 68.5101H62.8441ZM63.1671 67.4389H65.3742L64.2922 64.1227H64.2545L63.1671 67.4389ZM71.9419 70.5181V63.9236H74.2621V62.75H68.2328V63.9236H70.5584V70.5181H71.9419ZM76.4639 65.0056V70.5181H75.2095V62.75H76.8191L79.1986 68.677H79.2416L81.621 62.75H83.2253V70.5181H81.9764V65.0056H81.9386L79.6939 70.5181H78.7464L76.5015 65.0056H76.4639Z" fill="#591900"/>
<path d="M84.5 56.5H80.75C80.0596 56.5 79.5 57.0596 79.5 57.75V59C79.5 59.6904 80.0596 60.25 80.75 60.25H84.5C85.1904 60.25 85.75 59.6904 85.75 59V57.75C85.75 57.0596 85.1904 56.5 84.5 56.5Z" fill="#D53C00"/>
<path fill-rule="evenodd" clip-rule="evenodd" d="M108.884 52.675C109.841 52.675 110.618 53.4513 110.618 54.4088V54.7339H119.257C120.512 54.7339 121.082 55.1086 122.07 56.4071L123.832 58.8516H139.599C140.649 58.8516 141.5 59.7191 141.5 60.7893V73.3844C141.5 74.4546 140.649 75.3221 139.599 75.3221H118.695C117.645 75.3221 116.794 74.4546 116.794 73.3844V67.6412H115.283C114.378 67.6412 113.516 67.2289 112.713 66.5545C112.532 66.4022 112.362 66.2431 112.205 66.0817L111.931 65.7842L111.866 65.7082L110.581 65.7089C110.417 66.4958 109.719 67.0868 108.884 67.0868H108.234C107.276 67.0868 106.5 66.3106 106.5 65.353V54.4088C106.5 53.4513 107.276 52.675 108.234 52.675H108.884ZM110.618 64.6798H112.373L112.562 64.9334L112.672 65.0677C112.695 65.0946 112.721 65.1236 112.748 65.1544C112.934 65.3632 113.145 65.5723 113.376 65.7665C113.946 66.2462 114.533 66.5472 115.096 66.6025L115.283 66.6118H116.794V63.7375L116.109 63.7377C114.971 63.7377 114.164 63.3459 113.682 62.6669L113.584 62.517C113.322 62.0844 113.218 61.6493 113.196 61.2205L113.191 61.0372H114.221C114.221 61.3541 114.282 61.6832 114.464 61.9842C114.717 62.4014 115.16 62.6622 115.899 62.7027L116.109 62.7082H118.11L119.721 64.1782C120.304 64.6025 121.172 64.614 121.875 64.2728C122.424 64.007 122.541 63.7601 122.369 63.6037L118.847 60.3992L118.853 59.0829V58.8516H122.619L121.297 57.0185C120.495 55.9651 120.172 55.753 119.257 55.753H110.618V64.6798ZM108.884 53.5419H108.234C107.792 53.5419 107.427 53.8726 107.374 54.3001L107.367 54.4088V65.353C107.367 65.795 107.698 66.1597 108.125 66.2132L108.234 66.2199H108.884C109.326 66.2199 109.691 65.8893 109.744 65.4619L109.751 65.353V54.4088C109.751 53.9669 109.42 53.6022 108.993 53.5487L108.884 53.5419ZM117.823 73.3319V63.8396L119.072 64.9753L119.255 65.0991C120.191 65.6782 121.366 65.664 122.325 65.199C123.427 64.6642 123.923 63.6252 123.062 62.8422L119.807 59.8809H139.527C140.048 59.8809 140.471 60.3111 140.471 60.8418V73.3319C140.471 73.8625 140.048 74.2927 139.527 74.2927H118.767C118.246 74.2927 117.823 73.8625 117.823 73.3319Z" fill="#591900"/>
<path d="M129.147 72.2343C131.99 72.2343 134.294 69.9299 134.294 67.0872C134.294 64.2446 131.99 61.9402 129.147 61.9402C126.304 61.9402 124 64.2446 124 67.0872C124 69.9299 126.304 72.2343 129.147 72.2343Z" fill="#D53C00"/>
<path d="M130.118 66.919L128.429 66.5122C128.179 66.4515 128.004 66.2562 128.004 66.0369C128.004 65.7643 128.266 65.5428 128.589 65.5428H129.644C129.88 65.5428 130.104 65.6046 130.291 65.7194C130.377 65.7717 130.498 65.7546 130.573 65.6914L130.899 65.4159C130.999 65.3314 130.983 65.1934 130.871 65.1208C130.52 64.8937 130.094 64.7707 129.644 64.7707H129.605V64.1913C129.605 64.0847 129.502 63.9983 129.376 63.9983H128.919C128.792 63.9983 128.69 64.0847 128.69 64.1913V64.7705H128.589C127.714 64.7705 127.012 65.405 127.095 66.1572C127.154 66.692 127.64 67.1253 128.252 67.2724L129.866 67.6611C130.116 67.722 130.291 67.9172 130.291 68.1365C130.291 68.4092 130.028 68.6307 129.706 68.6307H128.65C128.415 68.6307 128.191 68.5689 128.003 68.454C127.918 68.4016 127.797 68.4188 127.722 68.482L127.395 68.7575C127.295 68.842 127.311 68.9798 127.424 69.0526C127.774 69.2797 128.201 69.4027 128.65 69.4027H128.69V69.9818C128.69 70.0884 128.792 70.1748 128.919 70.1748H129.376C129.502 70.1748 129.605 70.0884 129.605 69.9818V69.4027H129.644C130.296 69.4027 130.911 69.0748 131.123 68.5542C131.413 67.839 130.914 67.1115 130.118 66.919Z" fill="white"/>
<defs>
<linearGradient id="paint0_linear_642_8369" x1="129.964" y1="24.4797" x2="139.579" y2="24.4797" gradientUnits="userSpaceOnUse">
<stop stop-color="#007940"/>
<stop offset="0.2285" stop-color="#00873F"/>
<stop offset="0.7433" stop-color="#40A737"/>
<stop offset="1" stop-color="#5CB531"/>
</linearGradient>
<linearGradient id="paint1_linear_642_8369" x1="129.965" y1="31.6844" x2="139.579" y2="31.6844" gradientUnits="userSpaceOnUse">
<stop stop-color="#007940"/>
<stop offset="0.2285" stop-color="#00873F"/>
<stop offset="0.7433" stop-color="#40A737"/>
<stop offset="1" stop-color="#5CB531"/>
</linearGradient>
<linearGradient id="paint2_linear_642_8369" x1="129.964" y1="21.3516" x2="139.579" y2="21.3516" gradientUnits="userSpaceOnUse">
<stop stop-color="#007940"/>
<stop offset="0.2285" stop-color="#00873F"/>
<stop offset="0.7433" stop-color="#40A737"/>
<stop offset="1" stop-color="#5CB531"/>
</linearGradient>
<linearGradient id="paint3_linear_642_8369" x1="108.442" y1="31.8536" x2="118.205" y2="31.8536" gradientUnits="userSpaceOnUse">
<stop stop-color="#1F286F"/>
<stop offset="0.4751" stop-color="#004E94"/>
<stop offset="0.8261" stop-color="#0066B1"/>
<stop offset="1" stop-color="#006FBC"/>
</linearGradient>
<linearGradient id="paint4_linear_642_8369" x1="119.152" y1="31.5335" x2="128.634" y2="31.5335" gradientUnits="userSpaceOnUse">
<stop stop-color="#6C2C2F"/>
<stop offset="0.1735" stop-color="#882730"/>
<stop offset="0.5731" stop-color="#BE1833"/>
<stop offset="0.8585" stop-color="#DC0436"/>
<stop offset="1" stop-color="#E60039"/>
</linearGradient>
</defs>
</svg>
