<svg width="49" height="48" viewBox="0 0 49 48" fill="none" xmlns="http://www.w3.org/2000/svg">
<rect x="0.799988" width="48" height="48" rx="12" fill="url(#paint0_linear_605_3277)"/>
<g filter="url(#filter0_d_605_3277)">
<path d="M39.2 16H31.2C32.2609 16 33.2783 15.5786 34.0284 14.8284C34.7786 14.0783 35.2 13.0609 35.2 12C35.2 10.9391 34.7786 9.92172 34.0284 9.17157C33.2783 8.42143 32.2609 8 31.2 8H30.8344C29.5804 8.00156 28.3511 8.34791 27.2807 9.00118C26.2104 9.65445 25.3403 10.5895 24.7656 11.704C24.1659 10.5854 23.2743 9.6503 22.1855 8.99808C21.0968 8.34586 19.8516 8.00094 18.5824 8H18.4C17.3391 8 16.3217 8.42143 15.5716 9.17157C14.8214 9.92172 14.4 10.9391 14.4 12C14.4 13.0609 14.8214 14.0783 15.5716 14.8284C16.3217 15.5786 17.3391 16 18.4 16H20.32L31.2 26.712V24.8C31.2 24.5878 31.2843 24.3843 31.4343 24.2343C31.5843 24.0843 31.7878 24 32 24H33.932L25.8048 16H28.0864L32.96 20.8H40.8V17.6C40.8 17.1757 40.6314 16.7687 40.3314 16.4686C40.0313 16.1686 39.6243 16 39.2 16ZM18.4 14.4C17.7635 14.4 17.153 14.1471 16.7029 13.6971C16.2528 13.247 16 12.6365 16 12C16 11.3635 16.2528 10.753 16.7029 10.3029C17.153 9.85286 17.7635 9.6 18.4 9.6H18.5832C19.9125 9.60174 21.1949 10.0915 22.187 10.9764C23.1791 11.8612 23.8117 13.0795 23.9648 14.4H18.4ZM25.6176 14.4C25.7284 13.0921 26.3257 11.8733 27.2917 10.9846C28.2576 10.0958 29.5218 9.60173 30.8344 9.6H31.2C31.8365 9.6 32.447 9.85286 32.897 10.3029C33.3471 10.753 33.6 11.3635 33.6 12C33.6 12.6365 33.3471 13.247 32.897 13.6971C32.447 14.1471 31.8365 14.4 31.2 14.4H25.6176Z" fill="white"/>
<path d="M35.0528 22.8592C35.2792 23.0818 35.4342 23.3668 35.4981 23.6778C35.5621 23.9887 35.5321 24.3117 35.4119 24.6056C35.2917 24.8995 35.0868 25.151 34.8233 25.328C34.5597 25.5051 34.2495 25.5998 33.932 25.6H32.8V26.7112C32.7998 27.0262 32.7066 27.3341 32.5321 27.5964C32.3577 27.8587 32.1096 28.0636 31.8192 28.1855C31.5287 28.3074 31.2088 28.3409 30.8994 28.2817C30.59 28.2225 30.3049 28.0733 30.08 27.8528L18.0392 16H10.4C9.97564 16 9.56868 16.1686 9.26862 16.4686C8.96856 16.7687 8.79999 17.1757 8.79999 17.6V20.8H17.2176C17.2819 20.8046 17.3454 20.8175 17.4064 20.8384L18.8256 19.4456C18.9784 19.3045 19.1801 19.2285 19.388 19.2336C19.596 19.2388 19.7937 19.3247 19.9393 19.4731C20.085 19.6216 20.1671 19.8209 20.1683 20.0289C20.1694 20.2369 20.0896 20.4371 19.9456 20.5872L16.468 24H18.4C18.6122 24 18.8156 24.0843 18.9657 24.2343C19.1157 24.3843 19.2 24.5878 19.2 24.8V26.7112L22.5456 23.4312C22.6978 23.2862 22.9009 23.2069 23.1111 23.2105C23.3212 23.2141 23.5215 23.3002 23.6687 23.4503C23.8158 23.6004 23.898 23.8024 23.8974 24.0126C23.8968 24.2228 23.8136 24.4243 23.6656 24.5736L20.32 27.8536C20.0215 28.1478 19.6191 28.3125 19.2 28.312C18.987 28.3125 18.776 28.2697 18.58 28.1864C18.2892 28.0648 18.0409 27.8598 17.8665 27.5973C17.692 27.3347 17.5993 27.0264 17.6 26.7112V25.6H16.468C16.1502 25.6 15.8397 25.5053 15.5759 25.3281C15.3121 25.1509 15.1071 24.8991 14.987 24.6049C14.8668 24.3108 14.837 23.9875 14.9013 23.6763C14.9656 23.3651 15.1211 23.0801 15.348 22.8576L15.8144 22.4H11.2V38.4C11.2 38.8243 11.3686 39.2313 11.6686 39.5314C11.9687 39.8314 12.3756 40 12.8 40H20.8V29.6C20.8 29.3878 20.8843 29.1843 21.0343 29.0343C21.1843 28.8843 21.3878 28.8 21.6 28.8C21.8122 28.8 22.0156 28.8843 22.1657 29.0343C22.3157 29.1843 22.4 29.3878 22.4 29.6V40H27.2V29.6C27.2 29.3878 27.2843 29.1843 27.4343 29.0343C27.5843 28.8843 27.7878 28.8 28 28.8C28.2122 28.8 28.4156 28.8843 28.5657 29.0343C28.7157 29.1843 28.8 29.3878 28.8 29.6V40H36.8C37.2243 40 37.6313 39.8314 37.9314 39.5314C38.2314 39.2313 38.4 38.8243 38.4 38.4V22.4H34.5872L35.0528 22.8592Z" fill="white"/>
</g>
<defs>
<filter id="filter0_d_605_3277" x="2.79999" y="4" width="44" height="44" filterUnits="userSpaceOnUse" color-interpolation-filters="sRGB">
<feFlood flood-opacity="0" result="BackgroundImageFix"/>
<feColorMatrix in="SourceAlpha" type="matrix" values="0 0 0 0 0 0 0 0 0 0 0 0 0 0 0 0 0 0 127 0" result="hardAlpha"/>
<feOffset dy="2"/>
<feGaussianBlur stdDeviation="3"/>
<feComposite in2="hardAlpha" operator="out"/>
<feColorMatrix type="matrix" values="0 0 0 0 0 0 0 0 0 0 0 0 0 0 0 0 0 0 0.18 0"/>
<feBlend mode="normal" in2="BackgroundImageFix" result="effect1_dropShadow_605_3277"/>
<feBlend mode="normal" in="SourceGraphic" in2="effect1_dropShadow_605_3277" result="shape"/>
</filter>
<linearGradient id="paint0_linear_605_3277" x1="0.799988" y1="48" x2="48.8" y2="0" gradientUnits="userSpaceOnUse">
<stop stop-color="#2D388A"/>
<stop offset="1" stop-color="#00AEEF"/>
</linearGradient>
</defs>
</svg>
