<svg width="40" height="40" viewBox="0 0 40 40" fill="none" xmlns="http://www.w3.org/2000/svg">
<g clip-path="url(#clip0_49_1277)">
<rect width="40" height="40" rx="20" fill="url(#paint0_linear_49_1277)"/>
<g filter="url(#filter0_d_49_1277)">
<path fill-rule="evenodd" clip-rule="evenodd" d="M23.5471 7.92899L21.7688 6.59782C20.704 5.80075 19.2959 5.80075 18.2312 6.5977L16.4528 7.92887C15.9664 8.29293 15.4545 8.4793 14.8479 8.51302L12.63 8.63639C11.3019 8.71031 10.2232 9.61535 9.91992 10.9104L9.41323 13.0732C9.27469 13.6647 9.00233 14.1365 8.55935 14.5523L6.9396 16.0725C5.96975 16.9828 5.72527 18.3695 6.32529 19.5565L7.3274 21.5389C7.60145 22.0812 7.69607 22.6177 7.62397 23.2209L7.3603 25.4266C7.20245 26.7473 7.90648 27.9667 9.12915 28.4903L11.1713 29.365C11.7297 29.6041 12.147 29.9543 12.4796 30.4627L13.6954 32.3218C14.4234 33.435 15.7466 33.9166 17.0197 33.5318L19.1461 32.8892C19.7277 32.7134 20.2725 32.7134 20.854 32.8892L22.9804 33.5318C24.2536 33.9166 25.5767 33.435 26.3047 32.3218L27.5205 30.4627C27.853 29.9543 28.2703 29.6041 28.8288 29.365L30.8709 28.4904C32.0935 27.9668 32.7976 26.7474 32.6397 25.4267L32.376 23.221C32.3039 22.6178 32.3986 22.0813 32.6726 21.5391L33.6747 19.5566C34.2747 18.3695 34.0303 16.9829 33.0604 16.0726L31.4407 14.5524C30.9977 14.1367 30.7253 13.6649 30.5867 13.0734L30.08 10.9105C29.7767 9.61541 28.698 8.71036 27.37 8.63652L25.1521 8.51314C24.5455 8.47937 24.0335 8.29304 23.5471 7.92899ZM26.4144 13.4087C29.9579 16.9521 29.958 22.6972 26.4147 26.2407C22.8713 29.7842 17.1262 29.7843 13.5827 26.2409C10.0392 22.6975 10.0391 16.9525 13.5825 13.409C17.1259 9.86546 22.8709 9.86536 26.4144 13.4087Z" fill="white"/>
<path fill-rule="evenodd" clip-rule="evenodd" d="M18.8669 20.5945L23.0666 16.3528C23.5638 15.8508 24.3748 15.8493 24.8754 16.3472C25.376 16.845 25.3776 17.6537 24.881 18.1549C23.1779 19.8737 21.4864 21.604 19.7755 23.3149C19.2753 23.8151 18.464 23.815 17.9637 23.3149L15.1252 20.4764C14.625 19.9762 14.625 19.1649 15.1252 18.6647C15.6253 18.1644 16.4368 18.1644 16.9369 18.6647L18.8669 20.5945Z" fill="white"/>
</g>
</g>
<defs>
<filter id="filter0_d_49_1277" x="0" y="2" width="40" height="39.6626" filterUnits="userSpaceOnUse" color-interpolation-filters="sRGB">
<feFlood flood-opacity="0" result="BackgroundImageFix"/>
<feColorMatrix in="SourceAlpha" type="matrix" values="0 0 0 0 0 0 0 0 0 0 0 0 0 0 0 0 0 0 127 0" result="hardAlpha"/>
<feOffset dy="2"/>
<feGaussianBlur stdDeviation="3"/>
<feComposite in2="hardAlpha" operator="out"/>
<feColorMatrix type="matrix" values="0 0 0 0 0 0 0 0 0 0 0 0 0 0 0 0 0 0 0.18 0"/>
<feBlend mode="normal" in2="BackgroundImageFix" result="effect1_dropShadow_49_1277"/>
<feBlend mode="normal" in="SourceGraphic" in2="effect1_dropShadow_49_1277" result="shape"/>
</filter>
<linearGradient id="paint0_linear_49_1277" x1="0" y1="40" x2="40" y2="0" gradientUnits="userSpaceOnUse">
<stop stop-color="#EF4136"/>
<stop offset="1" stop-color="#FBB040"/>
</linearGradient>
<clipPath id="clip0_49_1277">
<rect width="40" height="40" rx="20" fill="white"/>
</clipPath>
</defs>
</svg>
