<svg width="24" height="24" viewBox="0 0 24 24" fill="none" xmlns="http://www.w3.org/2000/svg">
<rect width="24" height="24" rx="12" fill="#EBEBEB"/>
<path fill-rule="evenodd" clip-rule="evenodd" d="M9.54698 9.17227H6.9581C6.65211 9.17227 6.3805 9.42669 6.40113 9.73268L6.92372 16.9733C6.97873 17.7572 7.46694 18.4001 8.38834 18.4001H15.794C16.6226 18.4001 17.1933 17.8809 17.2586 16.9733L17.7778 9.72924C17.8018 9.42325 17.5268 9.17227 17.2208 9.17227H14.6353C14.5563 8.29556 14.3122 7.5048 13.9615 6.89969C13.4939 6.09862 12.8372 5.6001 12.0912 5.6001C11.3451 5.6001 10.685 6.09518 10.2208 6.89969C9.87016 7.50824 9.62605 8.29556 9.54698 9.17227ZM13.9821 9.17227H10.1933C10.2724 8.41589 10.4787 7.73859 10.7778 7.22631C11.1285 6.62121 11.5926 6.24646 12.0912 6.24646C12.5862 6.24646 13.0538 6.62121 13.3976 7.22287C13.6968 7.73859 13.9065 8.41245 13.9821 9.17227ZM10.1418 15.4949C10.0593 15.6152 10.0902 15.7768 10.2105 15.8594C10.3034 15.9247 10.3927 15.9797 10.4787 16.0278C11.1663 16.4473 11.8196 16.6535 12.38 16.6535C12.9782 16.6501 13.4698 16.4163 13.7896 15.9453C13.7915 15.9421 13.7935 15.9387 13.7957 15.935C13.8052 15.9189 13.8175 15.8983 13.8343 15.8731C13.9237 15.7287 13.989 15.5809 14.0302 15.433C14.1231 15.103 14.1059 14.766 13.9684 14.4463C13.8343 14.1369 13.5833 13.8515 13.2085 13.6246C12.9816 13.4871 12.7066 13.3702 12.3834 13.2773C11.7852 13.1089 11.3554 12.8923 11.1491 12.6138C10.9703 12.3731 10.9669 12.0568 11.1869 11.6546C11.3176 11.4139 11.6133 11.2626 12.0018 11.2317C12.4075 11.2007 12.8957 11.3004 13.4079 11.5617C13.5386 11.6305 13.6933 11.5789 13.7621 11.4483C13.8308 11.3176 13.7793 11.1595 13.6486 11.0942C13.0469 10.7882 12.4556 10.6713 11.964 10.7091C11.3932 10.7538 10.9428 11.0048 10.7228 11.407C10.3927 12.0156 10.4168 12.5175 10.7262 12.9335C11.0082 13.3117 11.5308 13.5937 12.239 13.7931C12.5175 13.8687 12.7478 13.9684 12.9335 14.0819C13.212 14.2503 13.3908 14.4532 13.4836 14.6629C13.5695 14.8623 13.5799 15.0823 13.518 15.2955C13.487 15.3986 13.4423 15.5052 13.3804 15.6049C13.3787 15.6102 13.3742 15.6164 13.3684 15.6244C13.3629 15.632 13.3562 15.6413 13.3495 15.6531C13.1329 15.9728 12.7925 16.131 12.3731 16.131C11.9089 16.131 11.352 15.9487 10.7469 15.5809C10.6609 15.5293 10.5818 15.4777 10.5062 15.4262C10.3859 15.3436 10.2243 15.3746 10.1418 15.4949Z" fill="#EE4D2D"/>
</svg>
