<svg width="41" height="40" viewBox="0 0 41 40" fill="none" xmlns="http://www.w3.org/2000/svg">
<g clip-path="url(#clip0_49_1289)">
<rect x="0.5" width="40" height="40" rx="20" fill="url(#paint0_linear_49_1289)"/>
<g filter="url(#filter0_d_49_1289)">
<path d="M20.3035 16.5702L19.5051 17.2375V14.1629H21.495V17.2375L20.6965 16.5702C20.6393 16.521 20.5696 16.4965 20.5 16.4965C20.4304 16.4965 20.3609 16.5211 20.3035 16.5702Z" fill="white"/>
<path d="M27.2805 14.4699V25.5282C27.2805 25.6961 27.1413 25.8352 26.9734 25.8352H14.0266C13.8588 25.8352 13.7196 25.6961 13.7196 25.5282V14.4699C13.7196 14.302 13.8588 14.1629 14.0266 14.1629H18.8909V17.8967C18.8909 18.0195 18.9605 18.126 19.0669 18.1751C19.1775 18.2283 19.3044 18.2119 19.3945 18.1342L20.5 17.2048L21.6055 18.1342C21.6629 18.1792 21.7324 18.2037 21.8021 18.2037C21.8471 18.2037 21.8922 18.1955 21.9331 18.1751C22.0436 18.126 22.1092 18.0195 22.1092 17.8967V14.1629H26.9734C27.1413 14.1629 27.2805 14.302 27.2805 14.4699Z" fill="white"/>
<path d="M18.6657 9.80254C18.7476 9.85992 18.7967 9.95408 18.7967 10.0564C18.7967 10.1547 18.7476 10.2529 18.6657 10.3102L14.649 13.0574C14.5589 13.1188 14.4361 13.127 14.3337 13.0738C14.2355 13.0206 14.1699 12.9182 14.1699 12.8036V12.1076C11.4635 12.1444 9.07642 13.9704 8.34349 16.5784C8.30665 16.7094 8.1879 16.8036 8.0487 16.8036C7.91355 16.8036 7.79075 16.7094 7.75391 16.5784C7.58602 15.9806 7.5 15.3624 7.5 14.7442C7.5 11.0431 10.4849 8.02979 14.1699 7.98476V7.30922C14.1699 7.19462 14.2355 7.08817 14.3337 7.0349C14.4361 6.98172 14.5589 6.98992 14.649 7.05539L18.6657 9.80254Z" fill="white"/>
<path d="M33.5 25.2539C33.5 28.955 30.5152 31.9683 26.8301 32.0133V32.6929C26.8301 32.8035 26.7687 32.9099 26.6663 32.9632C26.6213 32.9878 26.5722 33 26.523 33C26.4616 33 26.4002 32.9796 26.351 32.9427L22.3343 30.1955C22.2525 30.1382 22.2034 30.044 22.2034 29.9417C22.2034 29.8434 22.2525 29.7452 22.3343 29.6878L26.351 26.9407C26.4452 26.8793 26.564 26.8711 26.6663 26.9243C26.7687 26.9775 26.8301 27.0799 26.8301 27.1945V27.8905C29.5366 27.8537 31.9237 26.0277 32.6566 23.4197C32.6934 23.2887 32.8122 23.1945 32.9514 23.1945C33.0864 23.1945 33.2093 23.2887 33.2462 23.4197C33.414 24.0175 33.5 24.6356 33.5 25.2539Z" fill="white"/>
</g>
</g>
<defs>
<filter id="filter0_d_49_1289" x="1.5" y="3" width="38" height="38" filterUnits="userSpaceOnUse" color-interpolation-filters="sRGB">
<feFlood flood-opacity="0" result="BackgroundImageFix"/>
<feColorMatrix in="SourceAlpha" type="matrix" values="0 0 0 0 0 0 0 0 0 0 0 0 0 0 0 0 0 0 127 0" result="hardAlpha"/>
<feOffset dy="2"/>
<feGaussianBlur stdDeviation="3"/>
<feComposite in2="hardAlpha" operator="out"/>
<feColorMatrix type="matrix" values="0 0 0 0 0 0 0 0 0 0 0 0 0 0 0 0 0 0 0.18 0"/>
<feBlend mode="normal" in2="BackgroundImageFix" result="effect1_dropShadow_49_1289"/>
<feBlend mode="normal" in="SourceGraphic" in2="effect1_dropShadow_49_1289" result="shape"/>
</filter>
<linearGradient id="paint0_linear_49_1289" x1="0.5" y1="40" x2="40.5" y2="0" gradientUnits="userSpaceOnUse">
<stop stop-color="#EF4136"/>
<stop offset="1" stop-color="#FBB040"/>
</linearGradient>
<clipPath id="clip0_49_1289">
<rect x="0.5" width="40" height="40" rx="20" fill="white"/>
</clipPath>
</defs>
</svg>
