<svg width="24" height="24" viewBox="0 0 24 24" fill="none" xmlns="http://www.w3.org/2000/svg">
<rect width="24" height="24" rx="12" fill="#EBEBEB"/>
<g clip-path="url(#clip0_642_8437)">
<g style="mix-blend-mode:multiply">
<path d="M19.9953 4H4.00469C4.0021 4 4 4.0021 4 4.00469V19.9953C4 19.9979 4.0021 20 4.00469 20H19.9953C19.9979 20 20 19.9979 20 19.9953V4.00469C20 4.0021 19.9979 4 19.9953 4Z" fill="white"/>
</g>
<g style="mix-blend-mode:multiply">
<path d="M11.4063 10.7187C10.668 10.6142 9.91541 10.7379 9.24944 11.0732C8.58346 11.4086 8.03593 11.9395 7.68028 12.5949C7.32462 13.2502 7.17783 13.9987 7.2596 14.7398C7.34137 15.481 7.64779 16.1794 8.13776 16.7414C8.62773 17.3035 9.27784 17.7023 10.0009 17.8844C10.724 18.0665 11.4854 18.0232 12.1832 17.7602C12.8809 17.4973 13.4816 17.0273 13.9046 16.4133C14.3277 15.7993 14.5529 15.0706 14.55 14.325V10.325C15.3519 10.8986 16.3142 11.2047 17.3 11.2V9.2312C16.5707 9.2312 15.8712 8.94147 15.3555 8.42574C14.8398 7.91002 14.55 7.21055 14.55 6.4812H12.5625V14.3437C12.5618 14.6966 12.4495 15.0402 12.2416 15.3253C12.0337 15.6104 11.7409 15.8225 11.4051 15.9311C11.0694 16.0397 10.7079 16.0392 10.3724 15.9298C10.0369 15.8205 9.74462 15.6077 9.5374 15.3221C9.33018 15.0365 9.21865 14.6926 9.21878 14.3397C9.2189 13.9869 9.33068 13.6431 9.5381 13.3576C9.74553 13.0721 10.038 12.8596 10.3735 12.7504C10.7091 12.6413 11.0706 12.6411 11.4063 12.75V10.7187Z" fill="#FF004F"/>
</g>
<g style="mix-blend-mode:multiply">
<path d="M10.8438 10.25C10.1055 10.1454 9.35291 10.2692 8.68694 10.6045C8.02096 10.9398 7.47343 11.4708 7.11778 12.1261C6.76212 12.7815 6.61533 13.5299 6.6971 14.2711C6.77887 15.0122 7.08529 15.7106 7.57526 16.2727C8.06523 16.8347 8.71534 17.2336 9.4384 17.4157C10.1615 17.5977 10.9229 17.5544 11.6207 17.2915C12.3184 17.0285 12.9191 16.5585 13.3421 15.9445C13.7652 15.3305 13.9904 14.6018 13.9875 13.8562V9.8562C14.7894 10.4298 15.7517 10.736 16.7375 10.7312V8.76245C16.0082 8.76245 15.3087 8.47272 14.793 7.95699C14.2773 7.44127 13.9875 6.7418 13.9875 6.01245H12V13.875C11.9993 14.2278 11.887 14.5714 11.6791 14.8566C11.4712 15.1417 11.1784 15.3537 10.8426 15.4623C10.5069 15.5709 10.1454 15.5705 9.80989 15.4611C9.4744 15.3517 9.18212 15.139 8.9749 14.8533C8.76768 14.5677 8.65615 14.2239 8.65628 13.871C8.6564 13.5181 8.76818 13.1743 8.9756 12.8888C9.18303 12.6034 9.47546 12.3908 9.81103 12.2817C10.1466 12.1725 10.5081 12.1724 10.8438 12.2812V10.25Z" fill="#00F2EA"/>
</g>
</g>
<defs>
<clipPath id="clip0_642_8437">
<rect width="16" height="16" fill="white" transform="translate(4 4)"/>
</clipPath>
</defs>
</svg>
