<svg width="49" height="48" viewBox="0 0 49 48" fill="none" xmlns="http://www.w3.org/2000/svg">
<rect x="0.200012" width="48" height="48" rx="12" fill="url(#paint0_linear_605_12702)"/>
<g filter="url(#filter0_d_605_12702)">
<path d="M33.6235 9.37927L35.0949 11.9277C34.2501 12.4154 33.6336 13.2187 33.3811 14.161C33.1286 15.1032 33.2607 16.1071 33.7484 16.952C34.2361 17.7968 35.0395 18.4132 35.9817 18.6658C36.9239 18.9183 37.9279 18.7861 38.7727 18.2984L39.9992 20.4215C40.1929 20.7571 40.2464 21.1555 40.1482 21.5302C40.0952 21.3634 40.0029 21.21 39.8768 21.084C39.6699 20.877 39.3892 20.7608 39.0966 20.7608H11.9485L32.2839 9.02009C32.5092 8.89016 32.7768 8.855 33.028 8.92235C33.2792 8.98971 33.4934 9.15405 33.6235 9.37927Z" fill="white"/>
<path fill-rule="evenodd" clip-rule="evenodd" d="M40.2 23.2435V26.5539C39.1026 26.5539 38.0501 26.9898 37.2741 27.7659C36.498 28.5419 36.0621 29.5944 36.0621 30.6918C36.0621 31.7893 36.498 32.8418 37.2741 33.6178C38.0501 34.3938 39.1026 34.8298 40.2 34.8298V37.5884C40.2 38.0274 40.0256 38.4484 39.7152 38.7588C39.4048 39.0692 38.9838 39.2435 38.5448 39.2435H19.7862V37.5884C19.7862 37.442 19.7281 37.3017 19.6246 37.1982C19.5212 37.0948 19.3808 37.0366 19.2345 37.0366C19.0882 37.0366 18.9478 37.0948 18.8444 37.1982C18.7409 37.3017 18.6828 37.442 18.6828 37.5884V39.2435H9.85518C9.41621 39.2435 8.99521 39.0692 8.6848 38.7588C8.3744 38.4484 8.20001 38.0274 8.20001 37.5884V34.8298C9.29746 34.8298 10.35 34.3938 11.126 33.6178C11.902 32.8418 12.3379 31.7893 12.3379 30.6918C12.3379 29.5944 11.902 28.5419 11.126 27.7659C10.35 26.9898 9.29746 26.5539 8.20001 26.5539V23.2435C8.20001 22.9509 8.31627 22.6702 8.5232 22.4633C8.73014 22.2564 9.01081 22.1401 9.30346 22.1401H18.6828V23.7953C18.6828 23.9416 18.7409 24.0819 18.8444 24.1854C18.9478 24.2889 19.0882 24.347 19.2345 24.347C19.3808 24.347 19.5212 24.2889 19.6246 24.1854C19.7281 24.0819 19.7862 23.9416 19.7862 23.7953V22.1401H39.0966C39.3892 22.1401 39.6699 22.2564 39.8768 22.4633C40.0838 22.6702 40.2 22.9509 40.2 23.2435ZM26.9586 27.6573C26.9586 28.5715 26.2176 29.3125 25.3035 29.3125C24.3893 29.3125 23.6483 28.5715 23.6483 27.6573C23.6483 26.7432 24.3893 26.0022 25.3035 26.0022C26.2176 26.0022 26.9586 26.7432 26.9586 27.6573ZM31.9242 35.9332C32.8383 35.9332 33.5793 35.1922 33.5793 34.278C33.5793 33.3639 32.8383 32.6229 31.9242 32.6229C31.01 32.6229 30.269 33.3639 30.269 34.278C30.269 35.1922 31.01 35.9332 31.9242 35.9332ZM24.2231 34.7266C24.2815 34.8683 24.3675 34.9972 24.4759 35.1056C24.5843 35.214 24.7132 35.2999 24.8549 35.3584C24.9967 35.4169 25.1487 35.4467 25.302 35.4463C25.4554 35.4458 25.6071 35.415 25.7485 35.3557C25.89 35.2964 26.0183 35.2097 26.1261 35.1007L32.7043 28.4375C32.9053 28.2294 33.0165 27.9506 33.014 27.6613C33.0115 27.372 32.8954 27.0952 32.6908 26.8906C32.4863 26.6861 32.2095 26.57 31.9202 26.5675C31.6309 26.565 31.3521 26.6762 31.144 26.8772L24.4808 33.4554C24.3718 33.5632 24.2851 33.6915 24.2258 33.8329C24.1665 33.9744 24.1357 34.1261 24.1352 34.2795C24.1348 34.4328 24.1646 34.5848 24.2231 34.7266ZM19.6246 29.7026C19.5212 29.8061 19.3808 29.8642 19.2345 29.8642C19.0882 29.8642 18.9478 29.8061 18.8444 29.7026C18.7409 29.5992 18.6828 29.4588 18.6828 29.3125V26.5539C18.6828 26.4076 18.7409 26.2672 18.8444 26.1638C18.9478 26.0603 19.0882 26.0022 19.2345 26.0022C19.3808 26.0022 19.5212 26.0603 19.6246 26.1638C19.7281 26.2672 19.7862 26.4076 19.7862 26.5539V29.3125C19.7862 29.4588 19.7281 29.5992 19.6246 29.7026ZM19.6246 35.2199C19.5212 35.3233 19.3808 35.3815 19.2345 35.3815C19.0882 35.3815 18.9478 35.3233 18.8444 35.2199C18.7409 35.1164 18.6828 34.9761 18.6828 34.8298V32.0711C18.6828 31.9248 18.7409 31.7845 18.8444 31.681C18.9478 31.5775 19.0882 31.5194 19.2345 31.5194C19.3808 31.5194 19.5212 31.5775 19.6246 31.681C19.7281 31.7845 19.7862 31.9248 19.7862 32.0711V34.8298C19.7862 34.9761 19.7281 35.1164 19.6246 35.2199Z" fill="white"/>
</g>
<defs>
<filter id="filter0_d_605_12702" x="2.20001" y="4.88889" width="44" height="42.3546" filterUnits="userSpaceOnUse" color-interpolation-filters="sRGB">
<feFlood flood-opacity="0" result="BackgroundImageFix"/>
<feColorMatrix in="SourceAlpha" type="matrix" values="0 0 0 0 0 0 0 0 0 0 0 0 0 0 0 0 0 0 127 0" result="hardAlpha"/>
<feOffset dy="2"/>
<feGaussianBlur stdDeviation="3"/>
<feComposite in2="hardAlpha" operator="out"/>
<feColorMatrix type="matrix" values="0 0 0 0 0 0 0 0 0 0 0 0 0 0 0 0 0 0 0.18 0"/>
<feBlend mode="normal" in2="BackgroundImageFix" result="effect1_dropShadow_605_12702"/>
<feBlend mode="normal" in="SourceGraphic" in2="effect1_dropShadow_605_12702" result="shape"/>
</filter>
<linearGradient id="paint0_linear_605_12702" x1="0.200012" y1="48" x2="48.2" y2="0" gradientUnits="userSpaceOnUse">
<stop stop-color="#00A1FF"/>
<stop offset="1" stop-color="#00FF8F"/>
</linearGradient>
</defs>
</svg>
