<svg width="24" height="24" viewBox="0 0 24 24" fill="none" xmlns="http://www.w3.org/2000/svg">
<rect width="24" height="24" rx="12" fill="#EBEBEB"/>
<path d="M18.397 10.3698C18.4258 9.53758 18.2438 8.71155 17.8679 7.96845C17.6129 7.66353 17.259 7.45776 16.8678 7.38699C15.2499 7.24019 13.6254 7.18002 12.0011 7.20674C10.3827 7.17881 8.76396 7.23704 7.15176 7.38118C6.83302 7.43916 6.53805 7.58867 6.30284 7.81145C5.77954 8.29406 5.72139 9.11972 5.66325 9.81746C5.57889 11.072 5.57889 12.3307 5.66325 13.5853C5.68007 13.978 5.73854 14.3678 5.83768 14.7482C5.90779 15.0418 6.04963 15.3135 6.25051 15.5389C6.48732 15.7735 6.78916 15.9315 7.11687 15.9925C8.37043 16.1472 9.63352 16.2113 10.8963 16.1844C12.9314 16.2134 14.7164 16.1844 16.8271 16.0215C17.1629 15.9644 17.4732 15.8061 17.7167 15.568C17.8795 15.4052 18.0011 15.2058 18.0714 14.9866C18.2794 14.3485 18.3815 13.6807 18.3738 13.0096C18.397 12.684 18.397 10.7187 18.397 10.3698ZM10.687 13.3585V9.75932L14.1292 11.5676C13.164 12.1026 11.8906 12.7073 10.687 13.3585Z" fill="#FF0000"/>
</svg>
